<svg width="96" height="30" viewBox="0 0 96 30" fill="none" xmlns="http://www.w3.org/2000/svg">
<path fill-rule="evenodd" clip-rule="evenodd" d="M59.852 22.7721C54.2943 27.2422 46.2363 29.6199 39.298 29.6199C29.5733 29.6199 20.8168 25.7024 14.1895 19.1807C13.6693 18.6687 14.1334 17.9688 14.7587 18.3656C21.9086 22.9002 30.7497 25.631 39.8817 25.631C46.0419 25.631 52.8136 24.2376 59.0443 21.3574C59.9839 20.9226 60.7718 22.0324 59.852 22.7721Z" fill="#787878"/>
<path fill-rule="evenodd" clip-rule="evenodd" d="M62.5077 20.6411C61.7792 19.7733 57.6946 20.2297 55.8601 20.434C55.3043 20.4961 55.218 20.0447 55.7191 19.717C58.9772 17.587 64.3157 18.2022 64.9362 18.9148C65.5618 19.6344 64.7728 24.616 61.719 26.9934C61.2492 27.3593 60.8028 27.1643 61.0109 26.681C61.6977 25.0843 63.2361 21.5089 62.5077 20.6411Z" fill="#787878"/>
<path fill-rule="evenodd" clip-rule="evenodd" d="M55.1546 3.97439V1.75538C55.156 1.41764 55.4157 1.19248 55.7282 1.19317L65.8692 1.19214C66.1933 1.19214 66.4536 1.42382 66.4543 1.75264L66.4536 3.65587C66.4512 3.97507 66.1772 4.39176 65.69 5.05283L60.4372 12.4087C62.3872 12.364 64.4498 12.65 66.2216 13.6268C66.6209 13.8468 66.728 14.1736 66.7595 14.4931V16.8607C66.7595 17.1872 66.3956 17.5647 66.0131 17.3684C62.8915 15.7648 58.7494 15.5894 55.2981 17.3876C54.9454 17.5719 54.5762 17.1999 54.5762 16.8734V14.6225C54.5762 14.2625 54.5832 13.6464 54.9534 13.0972L61.0395 4.5342L55.7405 4.53317C55.4168 4.53317 55.1567 4.30664 55.1546 3.97439Z" fill="#787878"/>
<path fill-rule="evenodd" clip-rule="evenodd" d="M20.6253 17.4366H17.7316C17.4561 17.4185 17.2359 17.2106 17.2139 16.9458L17.2158 2.0429C17.2158 1.74482 17.4657 1.50636 17.7742 1.50636L20.4693 1.5057C20.7513 1.52019 20.9778 1.73428 20.9956 2.00601V3.95192H21.0497C21.7522 2.07023 23.0758 1.19214 24.8586 1.19214C26.6687 1.19214 27.8032 2.07023 28.6137 3.95192C29.3159 2.07023 30.9097 1.19214 32.6118 1.19214C33.8273 1.19214 35.1509 1.69377 35.9614 2.82284C36.8799 4.07708 36.6912 5.89618 36.6912 7.49559L36.6889 16.9C36.6889 17.1978 36.4387 17.4366 36.1308 17.4366H33.2401C32.9496 17.4178 32.7204 17.1869 32.7204 16.9014L32.7198 9.0008C32.7198 8.37369 32.7739 6.80556 32.6387 6.20974C32.4227 5.20615 31.7743 4.92388 30.9369 4.92388C30.2347 4.92388 29.505 5.39422 29.2079 6.14716C28.9108 6.89976 28.9381 8.154 28.9381 9.0008V16.9C28.9381 17.1978 28.6879 17.4366 28.3797 17.4366H25.4893C25.1987 17.4178 24.9696 17.1869 24.9696 16.9014L24.9666 9.0008C24.9666 7.33881 25.2368 4.89259 23.1838 4.89259C21.1036 4.89259 21.1846 7.2759 21.1846 9.0008L21.1837 16.9C21.184 17.1978 20.9338 17.4366 20.6253 17.4366Z" fill="#787878"/>
<path fill-rule="evenodd" clip-rule="evenodd" d="M75.6674 3.51348C73.5547 3.51348 73.4211 6.51747 73.4211 8.39098C73.4211 10.2648 73.3945 14.2707 75.6408 14.2707C77.8604 14.2707 77.967 11.0401 77.967 9.06954C77.967 7.77756 77.9137 6.22705 77.5394 4.99919C77.218 3.93317 76.5763 3.51348 75.6674 3.51348ZM75.6408 0.379883C79.8926 0.379883 82.1918 4.1917 82.1918 9.03731C82.1918 13.7211 79.6521 17.4366 75.6408 17.4366C71.4692 17.4366 69.1963 13.6244 69.1963 8.87582C69.1963 4.09467 71.4959 0.379883 75.6408 0.379883Z" fill="#787878"/>
<path fill-rule="evenodd" clip-rule="evenodd" d="M87.3087 17.4366H84.3534C84.0563 17.4178 83.8211 17.1869 83.8211 16.9014L83.8164 1.99283C83.8413 1.72045 84.0873 1.50636 84.3861 1.50636L87.1377 1.5057C87.3965 1.51854 87.6101 1.69179 87.6646 1.92301V4.20256H87.7205C88.5512 2.1641 89.7138 1.19214 91.7629 1.19214C93.0916 1.19214 94.3934 1.66248 95.2242 2.94833C95.9997 4.13999 95.9997 6.14716 95.9997 7.58946V16.9669C95.9661 17.2314 95.7242 17.4366 95.4311 17.4366H92.4574C92.1828 17.4191 91.9614 17.2218 91.9291 16.9669V8.87531C91.9291 7.24461 92.1229 4.8613 90.0738 4.8613C89.3537 4.8613 88.6892 5.33164 88.3574 6.05296C87.9422 6.96234 87.8864 7.87173 87.8864 8.87531V16.9C87.881 17.1978 87.6246 17.4366 87.3087 17.4366Z" fill="#787878"/>
<path fill-rule="evenodd" clip-rule="evenodd" d="M51.2365 17.0376C51.0413 17.2125 50.7603 17.2242 50.5405 17.1061C49.5621 16.2921 49.3867 15.9158 48.852 15.1413C47.2348 16.7901 46.0893 17.2844 43.9953 17.2844C41.5153 17.2844 39.5859 15.7526 39.5859 12.6891C39.5859 10.2955 40.8811 8.6681 42.7275 7.87012C44.3257 7.16779 46.5581 7.04036 48.2666 6.84873V6.46579C48.2666 5.76379 48.3217 4.93403 47.9084 4.32768C47.5499 3.78522 46.8612 3.56181 46.2547 3.56181C45.1314 3.56181 44.1326 4.13805 43.887 5.33236C43.8362 5.5979 43.6424 5.86078 43.3754 5.87416L40.5202 5.56513C40.2793 5.51061 40.0113 5.31697 40.0808 4.94875C40.7371 1.48156 43.865 0.434082 46.6684 0.434082C48.1012 0.434082 49.9751 0.817021 51.1048 1.90229C52.538 3.24275 52.4 5.02968 52.4 6.97648V11.5701C52.4 12.9517 52.9737 13.558 53.512 14.3025C53.7001 14.5707 53.7425 14.8898 53.5023 15.0858C52.9005 15.5904 51.8316 16.5202 51.2432 17.0439L51.2365 17.0376ZM48.2666 9.84869C48.2666 10.9978 48.294 11.955 47.7153 12.9764C47.2468 13.8062 46.503 14.3165 45.676 14.3165C44.5463 14.3165 43.885 13.4547 43.885 12.1784C43.885 9.66742 46.1355 9.21057 48.2666 9.21057V9.84869Z" fill="#787878"/>
<path fill-rule="evenodd" clip-rule="evenodd" d="M12.6199 17.0376C12.4248 17.2125 12.1434 17.2242 11.9239 17.1061C10.9452 16.2921 10.7701 15.9158 10.2352 15.1413C8.61857 16.7901 7.47313 17.2844 5.37873 17.2844C2.89839 17.2844 0.969727 15.7526 0.969727 12.6891C0.969727 10.2955 2.26486 8.6681 4.111 7.87012C5.70953 7.16779 7.9416 7.04036 9.65007 6.84873V6.46579C9.65007 5.76379 9.7052 4.93403 9.29187 4.32768C8.93367 3.78522 8.24433 3.56181 7.63853 3.56181C6.51515 3.56181 5.51573 4.13805 5.2708 5.33236C5.21968 5.5979 5.02621 5.86078 4.7589 5.87416L1.90399 5.56513C1.66274 5.51061 1.39442 5.31697 1.46426 4.94875C2.12018 1.48156 5.24842 0.434082 8.05153 0.434082C9.48467 0.434082 11.3585 0.817021 12.4886 1.90229C13.9214 3.24275 13.7837 5.02968 13.7837 6.97648V11.5701C13.7837 12.9517 14.3568 13.558 14.8954 14.3025C15.0832 14.5707 15.1257 14.8898 14.8857 15.0858C14.2843 15.5904 13.2147 16.5202 12.6269 17.0439L12.6199 17.0376ZM9.65007 9.84869C9.65007 10.9978 9.6778 11.955 9.09873 12.9764C8.6306 13.8062 7.88647 14.3165 7.0598 14.3165C5.93007 14.3165 5.26846 13.4547 5.26846 12.1784C5.26846 9.66742 7.51925 9.21057 9.65007 9.21057V9.84869Z" fill="#787878"/>
</svg>
