<svg width="137" height="18" viewBox="0 0 137 18" fill="none" xmlns="http://www.w3.org/2000/svg">
<path d="M5.31133 8.31455C5.15959 8.12307 4.87778 8.08052 4.68268 8.22945C4.61764 8.272 4.57429 8.33583 4.55261 8.39966L0.650629 16.0803C0.542241 16.3144 0.628951 16.591 0.867406 16.6973C0.932439 16.7186 0.997472 16.7399 1.08418 16.7399H6.52528C6.6987 16.7399 6.87212 16.6548 6.93715 16.4846C8.08607 14.1017 7.37071 10.4847 5.31133 8.31455Z" fill="#787878"/>
<path d="M8.33915 0.669647C6.30527 3.79935 6.05941 7.75033 7.71334 11.102L10.4177 16.4735C10.5071 16.6289 10.6636 16.7399 10.8424 16.7399H16.4523C16.7205 16.7399 16.944 16.5179 16.944 16.2516C16.944 16.185 16.9217 16.0962 16.8993 16.0296C16.8993 16.0296 9.34491 1.02479 9.16611 0.64745C9.05436 0.425485 8.78615 0.336699 8.56265 0.447682C8.4509 0.514271 8.38385 0.580861 8.33915 0.669647Z" fill="#787878"/>
<path fill-rule="evenodd" clip-rule="evenodd" d="M85.7228 13.1837C85.7228 13.188 85.7228 13.1923 85.7228 13.1966L75.4908 7.23883C75.4907 7.22604 75.4907 7.21324 75.4907 7.20042L85.7228 13.1837ZM85.7228 13.1837L85.7448 13.1966C85.7448 15.8199 84.2517 17.6 80.5409 17.6C77.906 17.6 76.5007 16.9676 75.4248 16.4054V13.0092C77.0057 13.9695 78.7843 14.4848 80.5848 14.5082C82.0779 14.5082 82.5171 14.0163 82.5171 13.2903C82.5171 12.5407 82.0779 12.166 79.948 11.6975C76.4128 10.9526 75.5019 9.30544 75.4908 7.23883L75.4248 7.20042C75.4248 4.5771 77.2034 2.98438 80.6507 2.98438C82.1657 2.93753 83.6588 3.26545 85.0422 3.9447V7.22384C83.6149 6.52117 82.0999 6.0293 80.5628 6.0293C79.2893 6.0293 78.6086 6.38063 78.6086 7.20042C78.6086 7.83282 79.0917 8.30127 81.002 8.7463C84.4872 9.54129 85.7186 10.7097 85.7228 13.1837Z" fill="#787878"/>
<path d="M124.444 2.97998V16.74H127.386V6.25509L128.617 9.02983L132.79 16.74H136.484V2.97998H133.543V11.8728L132.425 9.28001L129.073 2.97998H124.444Z" fill="#787878"/>
<rect x="102.085" y="2.97998" width="3.44" height="13.76" fill="#787878"/>
<path d="M99.5042 13.1966C99.5042 10.7138 98.1778 9.54266 94.4116 8.7463C92.3509 8.30127 91.8298 7.83282 91.8298 7.20042C91.8298 6.38063 92.5641 6.0293 93.9379 6.0293C95.596 6.0293 97.2303 6.52117 98.7699 7.22384V3.9447C97.2777 3.26545 95.667 2.93753 94.0327 2.98438C90.3139 2.98438 88.3953 4.5771 88.3953 7.20042C88.3953 9.28501 89.3664 10.948 93.2036 11.6975C95.5012 12.166 95.9749 12.5407 95.9749 13.2903C95.9749 14.0163 95.5012 14.5082 93.8905 14.5082C91.9482 14.4848 90.0296 13.9695 88.3242 13.0092V16.4054C89.4849 16.9676 91.0008 17.6 93.8432 17.6C97.9172 17.5766 99.5042 15.8199 99.5042 13.1966Z" fill="#787878"/>
<path d="M50.4844 2.97998V16.74H57.1847L58.2244 13.7605H53.7652V2.97998H50.4844Z" fill="#787878"/>
<path d="M37.585 2.97998V5.95942H41.0619V16.74H44.2066V5.95942H47.905V2.97998H37.585Z" fill="#787878"/>
<path fill-rule="evenodd" clip-rule="evenodd" d="M28.5995 2.97998H32.809L37.5842 16.74H33.9405L33.2616 14.4201C31.5869 14.9205 29.8216 14.9205 28.1469 14.4201L27.4679 16.74H23.8242L28.5995 2.97998ZM28.939 11.6909C29.5274 11.8501 30.1158 11.941 30.7042 11.941C31.2926 11.941 31.8811 11.8728 32.4695 11.6909L30.7042 5.68649L28.939 11.6909Z" fill="#787878"/>
<path fill-rule="evenodd" clip-rule="evenodd" d="M63.8602 2.97998H68.0697L72.845 16.74H69.2013L68.5223 14.4201C66.8476 14.9205 65.0823 14.9205 63.4076 14.4201L62.7286 16.74H59.085L63.8602 2.97998ZM64.1997 11.6909C64.7881 11.8501 65.3765 11.941 65.965 11.941C66.5534 11.941 67.1418 11.8728 67.7302 11.6909L65.965 5.68649L64.1997 11.6909Z" fill="#787878"/>
<path fill-rule="evenodd" clip-rule="evenodd" d="M112.88 2.97998H117.089L121.864 16.74H118.221L117.542 14.4201C115.867 14.9205 114.102 14.9205 112.427 14.4201L111.748 16.74H108.104L112.88 2.97998ZM113.219 11.6909C113.808 11.8501 114.396 11.941 114.984 11.941C115.573 11.941 116.161 11.8728 116.75 11.6909L114.984 5.68649L113.219 11.6909Z" fill="#787878"/>
</svg>
