<svg width="97" height="20" viewBox="0 0 97 20" fill="none" xmlns="http://www.w3.org/2000/svg">
<path d="M16.0985 18.0528C11.6526 18.0528 8.04942 14.4478 8.04942 10.001C8.04942 5.55391 11.6526 1.95231 16.0985 1.95231C17.6656 1.95231 19.1287 2.39923 20.3646 3.17392L16.0985 10.001L24.1299 5.36361C23.2573 3.97334 22.0058 2.7754 20.4925 1.86636C18.5669 0.713483 15.8882 0 12.9262 0C8.70099 0 4.9942 1.53538 2.92702 3.83469C1.39654 5.53442 0.485352 7.67368 0.485352 10.0008C0.485352 12.3297 1.39654 14.4705 2.92702 16.1714C4.99958 18.4736 8.65114 20 12.8067 20C16.9616 20 20.6121 18.4724 22.6859 16.1714C22.7995 16.0447 22.9094 15.9168 23.0134 15.7841L22.7003 14.6103C21.2432 16.6902 18.8298 18.0528 16.0985 18.0528Z" fill="#787878"/>
<path d="M42.725 19.5158L39.3542 6.94111C38.8127 4.90907 36.9624 3.41553 34.7594 3.41553C34.188 3.41553 33.6406 3.51761 33.1326 3.7024L25.8758 6.34118H33.3394L34.6148 11.1043C33.3776 10.0395 31.7663 9.39162 30.0021 9.39162C26.4986 9.39162 23.6621 11.7393 23.6621 14.6353C23.6621 17.5316 26.4986 19.8828 30.0021 19.8828C32.5242 19.8828 34.7546 18.648 36.1304 16.7511L36.8703 19.5158H42.725ZM32.4429 17.5627C30.8268 17.5627 29.5168 16.2538 29.5168 14.6353C29.5168 13.0193 30.8268 11.7092 32.4429 11.7092C34.059 11.7092 35.3702 13.0193 35.3702 14.6353C35.3702 16.2538 34.059 17.5627 32.4429 17.5627Z" fill="#787878"/>
<path d="M56.4693 3.41772C56.0271 3.41772 55.6087 3.5155 55.2358 3.69061L50.5764 5.86202C50.3457 4.47498 49.1409 3.41772 47.6874 3.41772C47.2475 3.41772 46.8279 3.5155 46.4502 3.69061L40.7617 6.34122H44.7612V19.516H50.6159V7.80692C50.6159 6.99901 51.2697 6.34134 52.0802 6.34134C52.8858 6.34134 53.5444 6.99901 53.5444 7.80692V19.516H59.3967V6.34122C59.3967 4.72552 58.0854 3.41784 56.4693 3.41784" fill="#787878"/>
<path d="M78.4209 11.7091C78.4209 16.2885 74.7095 20 70.1314 20C65.5498 20 61.8359 16.2885 61.8359 11.7091C61.8359 7.13097 65.5498 3.41772 70.1314 3.41772C74.7095 3.41772 78.4209 7.13109 78.4209 11.7091ZM70.4745 5.9341C70.2139 4.95848 69.211 4.37936 68.2356 4.64161C67.2615 4.90278 66.6793 5.90625 66.9411 6.88175L69.7848 17.4838C70.0477 18.4604 71.0482 19.0389 72.0236 18.7807C72.999 18.5166 73.5787 17.5137 73.3169 16.5383L70.4745 5.9341Z" fill="#787878"/>
<path d="M93.1846 3.41772C92.7412 3.41772 92.3204 3.5155 91.9415 3.69061L87.2869 5.86202C87.0574 4.47498 85.8526 3.41772 84.3991 3.41772C83.9592 3.41772 83.5396 3.5155 83.1607 3.69061L77.4746 6.34122H81.4729V19.516H87.3264V7.80692C87.3264 6.99901 87.9814 6.34134 88.7918 6.34134C89.5999 6.34134 90.2537 6.99901 90.2537 7.80692V19.516H96.1108V6.34122C96.1108 4.72552 94.7983 3.41784 93.1846 3.41784" fill="#787878"/>
</svg>
