<svg height="211px" width="211px" version="1.1" id="Capa_1" xmlns="http://www.w3.org/2000/svg" xmlns:xlink="http://www.w3.org/1999/xlink" viewBox="0 0 32.00 32.00" xml:space="preserve" fill="#000000" transform="rotate(180)" stroke="#000000" stroke-width="0.00032"><g id="SVGRepo_bgCarrier" stroke-width="0" transform="translate(0,0), scale(1)"><path transform="translate(0, 0), scale(1)" d="M16,28.645294474703924C18.179169012263554,28.69984104513343,20.389582150972522,30.124047738217175,22.420848182535696,29.333028635177975C24.44267887771881,28.545683857020034,25.270874460257946,26.168006727036776,26.654096074676346,24.496358102150865C28.060181884355334,22.79707767902809,30.46504019610234,21.54580266651253,30.680750556962423,19.350785513776234C30.902153542103648,17.0978415749024,28.381526454332654,15.49222866298554,27.752670225924305,13.317529714273368C27.168173377857258,11.296233552137569,28.507432647438915,8.715465912228813,27.142330747502037,7.114287738740943C25.764478149228992,5.498153802702642,23.024339994796776,6.3026307015265655,21.067801553555057,5.4766016404604C19.22573007312473,4.698899274218651,17.95081259290704,2.848727737798774,16,2.4101179604019443C13.918822263768112,1.9421976143211124,11.665020881329273,2.08745633408492,9.701519482320535,2.9210704391445805C7.712368781805435,3.7655740803825304,6.211092087521433,5.429703456225383,4.879240880323666,7.13149053788681C3.554182175796136,8.824598426832196,2.671705526409648,10.765320294458588,1.9715656300610434,12.798101399150937C1.2186682723953837,14.984058134965226,-0.3480869290394015,17.409750250707315,0.6152731716633486,19.511463503842904C1.638244073197008,21.74322657951625,5.102060184726242,21.563809987028595,6.801579829219646,23.335495305956467C8.295123602480219,24.89245852484921,7.863574877748585,27.9368066080249,9.732105074593054,29.015417924074683C11.567731628926731,30.07503557268932,13.881155614892586,28.59225788422792,16,28.645294474703924" fill="#f2f5f6" strokewidth="0"></path></g><g id="SVGRepo_tracerCarrier" stroke-linecap="round" stroke-linejoin="round" stroke="#CCCCCC" stroke-width="0.384"></g><g id="SVGRepo_iconCarrier"> <g> <g id="right_x5F_quote"> <g> <path style="fill:#F0B73F;" d="M0,4v12h8c0,4.41-3.586,8-8,8v4c6.617,0,12-5.383,12-12V4H0z"></path> <path style="fill:#F0B73F;" d="M20,4v12h8c0,4.41-3.586,8-8,8v4c6.617,0,12-5.383,12-12V4H20z"></path> </g> </g> </g> </g></svg>