<svg width="98" height="32" viewBox="0 0 98 32" fill="none" xmlns="http://www.w3.org/2000/svg">
<path d="M41.9944 16.8399C41.9944 21.4438 38.3928 24.8363 33.9728 24.8363C29.5528 24.8363 25.9512 21.4438 25.9512 16.8399C25.9512 12.2036 29.5528 8.84351 33.9728 8.84351C38.3928 8.84351 41.9944 12.2036 41.9944 16.8399ZM38.4829 16.8399C38.4829 13.9629 36.3955 11.9945 33.9728 11.9945C31.5501 11.9945 29.4627 13.9629 29.4627 16.8399C29.4627 19.688 31.5501 21.6853 33.9728 21.6853C36.3955 21.6853 38.4829 19.6844 38.4829 16.8399Z" fill="#787878"/>
<path d="M59.2991 16.8399C59.2991 21.4438 55.6975 24.8363 51.2775 24.8363C46.8575 24.8363 43.2559 21.4438 43.2559 16.8399C43.2559 12.2072 46.8575 8.84351 51.2775 8.84351C55.6975 8.84351 59.2991 12.2036 59.2991 16.8399ZM55.7876 16.8399C55.7876 13.9629 53.7002 11.9945 51.2775 11.9945C48.8548 11.9945 46.7674 13.9629 46.7674 16.8399C46.7674 19.688 48.8548 21.6853 51.2775 21.6853C53.7002 21.6853 55.7876 19.6844 55.7876 16.8399Z" fill="#787878"/>
<path d="M75.8831 9.32661V23.6826C75.8831 29.588 72.4005 31.9999 68.2833 31.9999C64.4077 31.9999 62.0751 29.4077 61.1954 27.2878L64.2527 26.0152C64.7971 27.3167 66.131 28.8525 68.2797 28.8525C70.9151 28.8525 72.5483 27.2266 72.5483 24.1657V23.0157H72.4257C71.6398 23.9855 70.1256 24.8327 68.2148 24.8327C64.2166 24.8327 60.5537 21.35 60.5537 16.8687C60.5537 12.355 64.2166 8.84351 68.2148 8.84351C70.122 8.84351 71.6362 9.69073 72.4257 10.6317H72.5483V9.33021H75.8831V9.32661ZM72.7971 16.8687C72.7971 14.0531 70.9187 11.9945 68.5285 11.9945C66.1058 11.9945 64.076 14.0531 64.076 16.8687C64.076 19.6556 66.1058 21.6853 68.5285 21.6853C70.9187 21.6853 72.7971 19.6556 72.7971 16.8687Z" fill="#787878"/>
<path d="M81.381 0.912109V24.3461H77.9561V0.912109H81.381Z" fill="#787878"/>
<path d="M94.7275 19.4719L97.453 21.2889C96.5734 22.5904 94.4535 24.8329 90.7906 24.8329C86.248 24.8329 82.8555 21.3214 82.8555 16.8365C82.8555 12.0812 86.2768 8.84009 90.3976 8.84009C94.5472 8.84009 96.577 12.1425 97.2403 13.9271L97.6045 14.8356L86.915 19.2628C87.7333 20.8671 89.006 21.6855 90.7906 21.6855C92.5788 21.6855 93.819 20.8058 94.7275 19.4719ZM86.3381 16.5949L93.4837 13.6278C93.0907 12.6292 91.9082 11.9334 90.5166 11.9334C88.732 11.9334 86.248 13.5089 86.3381 16.5949Z" fill="#787878"/>
<path d="M12.9866 14.7598V11.3673H24.4188C24.5306 11.9585 24.5882 12.658 24.5882 13.4151C24.5882 15.9603 23.8924 19.1077 21.65 21.3502C19.4688 23.6215 16.682 24.8328 12.9902 24.8328C6.1475 24.8328 0.393555 19.2591 0.393555 12.4164C0.393555 5.57368 6.1475 0 12.9902 0C16.7757 0 19.4724 1.48535 21.4986 3.42136L19.1047 5.81523C17.6518 4.45246 15.6833 3.39252 12.9866 3.39252C7.98977 3.39252 4.0817 7.41956 4.0817 12.4164C4.0817 17.4132 7.98977 21.4403 12.9866 21.4403C16.2277 21.4403 18.0736 20.1388 19.2561 18.9563C20.2151 17.9973 20.846 16.6273 21.0948 14.7562L12.9866 14.7598Z" fill="#787878"/>
</svg>
