<svg width="94" height="84" viewBox="0 0 94 84" fill="none" xmlns="http://www.w3.org/2000/svg">
<path d="M91.783 59.9976H1.54395V79.0105H91.783V59.9976Z" fill="white"/>
<path d="M91.7824 79.1767H1.54336C1.50026 79.1767 1.45893 79.1596 1.42845 79.1291C1.39798 79.0986 1.38086 79.0573 1.38086 79.0142V60.0154C1.38086 59.9941 1.38506 59.9729 1.39323 59.9532C1.4014 59.9335 1.41336 59.9156 1.42845 59.9005C1.44354 59.8854 1.46146 59.8734 1.48118 59.8653C1.50089 59.8571 1.52202 59.8529 1.54336 59.8529H91.7824C91.8037 59.8529 91.8248 59.8571 91.8446 59.8653C91.8643 59.8734 91.8822 59.8854 91.8973 59.9005C91.9124 59.9156 91.9243 59.9335 91.9325 59.9532C91.9407 59.9729 91.9449 59.9941 91.9449 60.0154V79.0319C91.9405 79.0718 91.9215 79.1088 91.8915 79.1355C91.8614 79.1623 91.8226 79.177 91.7824 79.1767ZM1.6988 78.8517H91.6199V60.1603H1.70587L1.6988 78.8517Z" fill="#D1D3D4"/>
<path d="M91.7647 59.9976H1.56105C0.788438 59.9976 0.162109 60.6239 0.162109 61.3965V61.665C0.162109 62.4376 0.788438 63.0639 1.56105 63.0639H91.7647C92.5374 63.0639 93.1637 62.4376 93.1637 61.665V61.3965C93.1637 60.6239 92.5374 59.9976 91.7647 59.9976Z" fill="white"/>
<path d="M91.7651 63.2265H1.56145C1.14733 63.2265 0.750165 63.062 0.457337 62.7691C0.164509 62.4763 0 62.0791 0 61.665V61.4001C-1.05592e-06 60.9856 0.164394 60.5881 0.457121 60.2947C0.749849 60.0013 1.147 59.836 1.56145 59.8351H91.7651C92.1796 59.836 92.5767 60.0013 92.8695 60.2947C93.1622 60.5881 93.3266 60.9856 93.3266 61.4001V61.665C93.3266 61.8701 93.2862 62.0731 93.2077 62.2626C93.1292 62.452 93.0142 62.6241 92.8692 62.7691C92.7242 62.9141 92.5521 63.0291 92.3627 63.1076C92.1732 63.1861 91.9702 63.2265 91.7651 63.2265ZM1.56145 60.1601C1.2332 60.161 0.918712 60.2921 0.686935 60.5245C0.455159 60.757 0.325005 61.0718 0.325007 61.4001V61.665C0.325007 61.9929 0.455273 62.3074 0.687151 62.5393C0.919029 62.7712 1.23352 62.9015 1.56145 62.9015H91.7651C92.0931 62.9015 92.4075 62.7712 92.6394 62.5393C92.8713 62.3074 93.0016 61.9929 93.0016 61.665V61.4001C93.0016 61.0718 92.8714 60.757 92.6396 60.5245C92.4079 60.2921 92.0934 60.161 91.7651 60.1601H1.56145Z" fill="#D1D3D4"/>
<path d="M36.0968 55.1084H7.83887V59.8316H36.0968V55.1084Z" fill="#231F20"/>
<path d="M36.0966 59.987H7.83512C7.7939 59.987 7.75436 59.9706 7.72521 59.9414C7.69606 59.9123 7.67969 59.8727 7.67969 59.8315V55.1083C7.67969 55.0671 7.69606 55.0276 7.72521 54.9984C7.75436 54.9693 7.7939 54.9529 7.83512 54.9529H36.0966C36.1379 54.9529 36.1774 54.9693 36.2065 54.9984C36.2357 55.0276 36.2521 55.0671 36.2521 55.1083V59.8315C36.2521 59.8727 36.2357 59.9123 36.2065 59.9414C36.1774 59.9706 36.1379 59.987 36.0966 59.987ZM7.9941 59.662H35.9412V55.2638H7.9941V59.662Z" fill="#231F20"/>
<path d="M36.0933 55.1084H20.6943V59.8316H36.0933V55.1084Z" fill="white"/>
<path d="M36.0967 59.9941H20.6941C20.6516 59.9932 20.6112 59.9757 20.5815 59.9453C20.5518 59.9149 20.5351 59.8741 20.5352 59.8316V55.1084C20.5352 55.0663 20.5519 55.0258 20.5817 54.996C20.6115 54.9662 20.652 54.9495 20.6941 54.9495H36.0967C36.1388 54.9495 36.1793 54.9662 36.2091 54.996C36.2389 55.0258 36.2556 55.0663 36.2556 55.1084V59.8316C36.2556 59.8741 36.239 59.9149 36.2093 59.9453C36.1796 59.9757 36.1391 59.9932 36.0967 59.9941ZM20.8743 59.6621H35.9518V55.2709H20.8743V59.6621Z" fill="#231F20"/>
<path d="M35.6869 51.6888H12.8057V55.1897H35.6869V51.6888Z" fill="#231F20"/>
<path d="M35.6871 55.345H12.8058C12.7646 55.345 12.7251 55.3286 12.6959 55.2994C12.6668 55.2703 12.6504 55.2308 12.6504 55.1895V51.6886C12.6504 51.6474 12.6668 51.6079 12.6959 51.5787C12.7251 51.5496 12.7646 51.5332 12.8058 51.5332H35.6871C35.7286 51.5332 35.7685 51.5495 35.7982 51.5785C35.828 51.6076 35.8451 51.6471 35.846 51.6886V55.1895C35.846 55.2102 35.8419 55.2308 35.8339 55.2498C35.8258 55.2689 35.8141 55.2862 35.7993 55.3007C35.7844 55.3152 35.7669 55.3266 35.7476 55.3342C35.7284 55.3418 35.7078 55.3454 35.6871 55.345ZM12.9613 55.0341H35.5316V51.8547H12.9613V55.0341Z" fill="#231F20"/>
<path d="M35.6868 51.6888H25.9189V55.1897H35.6868V51.6888Z" fill="white"/>
<path d="M35.6872 55.3521H25.9193C25.8762 55.3521 25.8349 55.335 25.8044 55.3046C25.774 55.2741 25.7568 55.2327 25.7568 55.1896V51.6887C25.7577 51.6459 25.7751 51.6051 25.8054 51.5748C25.8357 51.5446 25.8765 51.5271 25.9193 51.5262H35.6872C35.7303 51.5262 35.7717 51.5434 35.8021 51.5738C35.8326 51.6043 35.8497 51.6456 35.8497 51.6887V55.1896C35.8502 55.2111 35.8463 55.2325 35.8383 55.2524C35.8303 55.2723 35.8184 55.2904 35.8032 55.3056C35.788 55.3208 35.7699 55.3328 35.75 55.3408C35.73 55.3488 35.7087 55.3526 35.6872 55.3521ZM26.0818 55.0307H35.5282V51.8513H26.0818V55.0307Z" fill="#231F20"/>
<path d="M32.4584 48.2867H9.57715V51.7876H32.4584V48.2867Z" fill="#231F20"/>
<path d="M32.4623 51.9431H9.57048C9.52925 51.9431 9.48972 51.9267 9.46057 51.8976C9.43142 51.8684 9.41504 51.8289 9.41504 51.7877V48.2868C9.41504 48.2456 9.43142 48.206 9.46057 48.1769C9.48972 48.1477 9.52925 48.1313 9.57048 48.1313H32.4623C32.5035 48.1313 32.5431 48.1477 32.5722 48.1769C32.6014 48.206 32.6177 48.2456 32.6177 48.2868V51.7877C32.6177 51.8289 32.6014 51.8684 32.5722 51.8976C32.5431 51.9267 32.5035 51.9431 32.4623 51.9431ZM9.73298 51.6322H32.3069V48.4528H9.73298V51.6322Z" fill="#231F20"/>
<path d="M32.4583 48.2867H22.6904V51.7876H32.4583V48.2867Z" fill="white"/>
<path d="M32.4617 51.9502H22.6903C22.6691 51.9502 22.6481 51.9459 22.6286 51.9377C22.6091 51.9295 22.5914 51.9175 22.5766 51.9024C22.5618 51.8872 22.5501 51.8693 22.5424 51.8496C22.5346 51.8299 22.5308 51.8088 22.5313 51.7877V48.2868C22.5313 48.2443 22.5479 48.2035 22.5776 48.1731C22.6073 48.1427 22.6478 48.1252 22.6903 48.1243H32.4617C32.5042 48.1252 32.5446 48.1427 32.5743 48.1731C32.604 48.2035 32.6207 48.2443 32.6206 48.2868V51.7877C32.6211 51.8088 32.6174 51.8299 32.6096 51.8496C32.6018 51.8693 32.5902 51.8872 32.5754 51.9024C32.5605 51.9175 32.5429 51.9295 32.5233 51.9377C32.5038 51.9459 32.4829 51.9502 32.4617 51.9502ZM22.8528 51.6287H32.2992V48.4493H22.8528V51.6287Z" fill="#231F20"/>
<path d="M20.9493 50.8091C21.357 50.8091 21.6876 50.4785 21.6876 50.0707C21.6876 49.663 21.357 49.3324 20.9493 49.3324C20.5415 49.3324 20.2109 49.663 20.2109 50.0707C20.2109 50.4785 20.5415 50.8091 20.9493 50.8091Z" fill="white"/>
<path d="M20.9487 50.9716C20.7705 50.9716 20.5964 50.9188 20.4482 50.8198C20.3001 50.7208 20.1846 50.5801 20.1164 50.4155C20.0482 50.2509 20.0304 50.0698 20.0652 49.895C20.0999 49.7203 20.1857 49.5598 20.3117 49.4338C20.4377 49.3078 20.5982 49.222 20.7729 49.1872C20.9477 49.1525 21.1288 49.1703 21.2934 49.2385C21.458 49.3067 21.5987 49.4221 21.6977 49.5703C21.7967 49.7184 21.8495 49.8926 21.8495 50.0708C21.8495 50.3097 21.7546 50.5388 21.5857 50.7077C21.4167 50.8767 21.1876 50.9716 20.9487 50.9716ZM20.9487 49.4949C20.8348 49.4949 20.7235 49.5287 20.6288 49.592C20.5341 49.6552 20.4603 49.7452 20.4167 49.8504C20.3731 49.9556 20.3617 50.0714 20.3839 50.1831C20.4061 50.2948 20.461 50.3974 20.5415 50.4779C20.622 50.5585 20.7246 50.6133 20.8363 50.6355C20.948 50.6577 21.0638 50.6463 21.169 50.6028C21.2743 50.5592 21.3642 50.4854 21.4275 50.3907C21.4907 50.296 21.5245 50.1846 21.5245 50.0708C21.5236 49.9183 21.4626 49.7724 21.3548 49.6646C21.247 49.5568 21.1011 49.4959 20.9487 49.4949Z" fill="#231F20"/>
<path d="M15.0385 54.7586C14.9957 54.7577 14.9549 54.7403 14.9246 54.71C14.8943 54.6798 14.8769 54.6389 14.876 54.5961V52.2434C14.876 52.222 14.8802 52.2009 14.8883 52.1812C14.8965 52.1615 14.9085 52.1435 14.9236 52.1284C14.9387 52.1134 14.9566 52.1014 14.9763 52.0932C14.996 52.0851 15.0171 52.0809 15.0385 52.0809C15.06 52.0804 15.0813 52.0842 15.1012 52.0922C15.1212 52.1002 15.1393 52.1122 15.1545 52.1274C15.1697 52.1426 15.1816 52.1607 15.1896 52.1806C15.1976 52.2005 15.2015 52.2219 15.201 52.2434V54.6138C15.1966 54.6538 15.1776 54.6907 15.1476 54.7174C15.1176 54.7442 15.0787 54.7589 15.0385 54.7586Z" fill="white"/>
<path d="M18.102 59.4394C18.0806 59.4394 18.0595 59.4352 18.0398 59.427C18.0201 59.4189 18.0021 59.4069 17.987 59.3918C17.972 59.3767 17.96 59.3588 17.9518 59.3391C17.9437 59.3194 17.9395 59.2982 17.9395 59.2769V55.5782C17.9453 55.5387 17.965 55.5027 17.9952 55.4767C18.0254 55.4506 18.0639 55.4363 18.1037 55.4363C18.1436 55.4363 18.1821 55.4506 18.2123 55.4767C18.2424 55.5027 18.2622 55.5387 18.268 55.5782V59.2769C18.268 59.2985 18.2637 59.32 18.2553 59.3399C18.2469 59.3599 18.2346 59.3779 18.2192 59.3931C18.2037 59.4082 18.1854 59.4201 18.1652 59.428C18.1451 59.436 18.1236 59.4399 18.102 59.4394Z" fill="white"/>
<path d="M22.415 6.96849L23.6479 6.01466L28.8445 8.1802L39.4037 4.61218L40.3576 6.07118L29.3108 12.4053L22.415 6.96849Z" fill="#E6E7E8"/>
<path d="M26.2829 23.9571L22.0225 6.51625L28.8123 9.43778L41.0707 4.99719L44.2254 22.6112L32.9314 26.5042L26.2829 23.9571Z" fill="white"/>
<path d="M32.9316 26.6666C32.9129 26.67 32.8938 26.67 32.8751 26.6666L26.2266 24.1195C26.2023 24.1098 26.1808 24.0945 26.1636 24.0749C26.1464 24.0552 26.1341 24.0318 26.1276 24.0065L21.8637 6.55502C21.8568 6.52621 21.8582 6.49607 21.8675 6.46798C21.8769 6.4399 21.8939 6.41498 21.9167 6.39605C21.9394 6.37576 21.9676 6.3626 21.9977 6.35821C22.0279 6.35381 22.0587 6.35837 22.0862 6.37132L28.7983 9.26459L41.0109 4.8452C41.0319 4.83564 41.0548 4.83069 41.078 4.83069C41.1011 4.83069 41.124 4.83564 41.1451 4.8452C41.1657 4.85704 41.1833 4.87334 41.1968 4.89291C41.2102 4.91247 41.2191 4.93479 41.2228 4.95824L44.3846 22.5687C44.3917 22.6065 44.3848 22.6455 44.3654 22.6787C44.3459 22.7118 44.3151 22.7367 44.2786 22.7489L32.974 26.6348L32.9316 26.6666ZM26.4209 23.8405L32.9351 26.3381L44.0454 22.5086L40.9473 5.21966L28.8655 9.59313C28.8279 9.60722 28.7865 9.60722 28.7489 9.59313L22.2558 6.80231L26.4209 23.8405Z" fill="#231F20"/>
<path d="M31.9461 25.7482C31.9088 25.7474 31.8728 25.7341 31.8439 25.7104C31.8151 25.6867 31.7951 25.654 31.7871 25.6175L28.6466 9.46602C28.6425 9.44536 28.6425 9.4241 28.6467 9.40346C28.6509 9.38283 28.6592 9.36323 28.671 9.34581C28.6829 9.32839 28.698 9.31349 28.7157 9.30199C28.7333 9.29048 28.7531 9.2826 28.7738 9.27879C28.7944 9.27469 28.8157 9.27475 28.8363 9.27894C28.857 9.28314 28.8765 9.29139 28.894 9.30322C28.9114 9.31506 28.9263 9.33023 28.9378 9.34787C28.9493 9.36551 28.9572 9.38525 28.961 9.40596L32.098 25.5539C32.1021 25.5745 32.1021 25.5958 32.0979 25.6164C32.0937 25.6371 32.0854 25.6567 32.0736 25.6741C32.0618 25.6915 32.0466 25.7064 32.0289 25.7179C32.0113 25.7294 31.9916 25.7373 31.9708 25.7411L31.9461 25.7482Z" fill="#231F20"/>
<path d="M36.4574 29.6341C36.4574 29.6341 35.2139 27.677 35.3976 27.1612C35.5406 26.6504 35.6376 26.1278 35.6873 25.5997L34.359 25.9177C34.359 25.9177 32.9883 22.491 32.8505 21.3005C32.7127 20.1099 30.1551 21.2086 30.0632 22.1236C29.9714 23.0385 29.9255 25.416 30.6567 26.7867C31.388 28.1574 33.444 31.4463 33.444 31.4463" fill="white"/>
<path d="M33.4409 31.6231C33.4133 31.6226 33.3862 31.6152 33.3622 31.6017C33.3381 31.5881 33.3178 31.5687 33.3031 31.5453C33.2819 31.5135 31.2365 28.2352 30.5123 26.8751C29.7881 25.515 29.8057 23.1729 29.8976 22.1237C29.9718 21.3924 31.2683 20.6399 32.1444 20.6329C32.2441 20.619 32.3456 20.6254 32.4429 20.6515C32.5401 20.6776 32.6311 20.723 32.7105 20.7849C32.7899 20.8468 32.8561 20.9241 32.9051 21.012C32.9541 21.1 32.9849 21.1969 32.9958 21.297C33.1159 22.3215 34.1934 25.1088 34.4442 25.7411L35.6382 25.4585C35.6628 25.4518 35.6888 25.4515 35.7135 25.4576C35.7383 25.4638 35.761 25.4763 35.7795 25.4938C35.7988 25.511 35.8139 25.5323 35.8237 25.5562C35.8335 25.5801 35.8377 25.6059 35.8361 25.6316C35.7827 26.1728 35.6822 26.7082 35.5358 27.2319C35.4404 27.4933 36.0056 28.645 36.5956 29.5458C36.6124 29.5816 36.6157 29.6223 36.6047 29.6603C36.5937 29.6983 36.5692 29.731 36.5358 29.7522C36.5025 29.7735 36.4625 29.7818 36.4234 29.7757C36.3843 29.7695 36.3488 29.7494 36.3236 29.7189C36.1081 29.3833 35.0483 27.67 35.2461 27.1189C35.3708 26.6967 35.456 26.2639 35.5004 25.8259L34.3947 26.0909C34.3569 26.0988 34.3175 26.0932 34.2833 26.0751C34.2491 26.0571 34.2223 26.0277 34.2075 25.9919C34.151 25.8506 32.8297 22.5299 32.6884 21.3323C32.6884 21.2405 32.646 20.9579 32.1621 20.9579C31.3849 20.9579 30.2862 21.6644 30.2332 22.1554C30.1343 23.1693 30.1202 25.4338 30.809 26.7232C31.5156 28.0727 33.5716 31.344 33.5928 31.3758C33.6151 31.4124 33.622 31.4563 33.6121 31.498C33.6022 31.5396 33.5762 31.5757 33.5398 31.5983C33.5108 31.618 33.4757 31.6268 33.4409 31.6231Z" fill="#231F20"/>
<path d="M75.6316 31.5877C75.6054 31.5879 75.5796 31.5816 75.5564 31.5695C75.5333 31.5573 75.5135 31.5396 75.4988 31.5179C75.4841 31.4962 75.475 31.4713 75.4723 31.4453C75.4696 31.4192 75.4733 31.3929 75.4832 31.3687C76.1261 29.6498 76.2823 27.7868 75.9345 25.9848C75.5867 24.1829 74.7484 22.5118 73.512 21.1557C73.3848 21.0215 73.2541 20.8872 73.1198 20.753C72.3073 19.9334 71.3888 18.9866 71.4453 17.8067C71.4639 17.5582 71.5065 17.3121 71.5725 17.0719C71.6217 16.8742 71.6583 16.6737 71.682 16.4713C71.7986 15.189 70.7388 14.1221 69.8309 13.4544C69.6119 13.2919 69.3823 13.1365 69.1562 12.9775C68.3048 12.3911 67.4251 11.787 66.8952 10.8791C66.2629 9.81929 66.1887 8.57225 66.0933 7.3782C66.0156 6.3184 65.9379 5.19854 65.4645 4.21998C65.0205 3.29435 64.3744 2.48011 63.574 1.83723C62.7736 1.19435 61.8392 0.739201 60.8395 0.505309C59.8399 0.271418 58.8005 0.264738 57.798 0.485762C56.7954 0.706787 55.8552 1.14989 55.0466 1.78243C54.2129 2.40889 53.5566 3.24167 53.1425 4.19878C52.7541 5.28984 52.5546 6.43912 52.5525 7.59723C52.4289 10.0101 52.1992 12.3381 50.878 14.3093C50.4652 14.8862 50.0132 15.4339 49.525 15.9485C48.6206 16.9518 47.7587 17.8986 47.4937 19.1279C47.3602 19.788 47.4117 20.4721 47.6423 21.1048C47.8729 21.7376 48.2739 22.2943 48.8008 22.7136C48.8177 22.7264 48.8319 22.7425 48.8426 22.7609C48.8532 22.7793 48.86 22.7996 48.8627 22.8207C48.8653 22.8418 48.8637 22.8632 48.8579 22.8836C48.8521 22.904 48.8423 22.9231 48.8291 22.9397C48.8026 22.9731 48.7641 22.9948 48.7218 23.0001C48.6795 23.0054 48.6368 22.9938 48.603 22.968C48.0309 22.5097 47.5962 21.9025 47.3469 21.2131C47.0976 20.5238 47.0433 19.779 47.1899 19.0608C47.476 17.7325 48.4016 16.708 49.3095 15.7189C49.7866 15.2144 50.2281 14.6773 50.6307 14.1115C51.9166 12.218 52.1321 9.9394 52.2487 7.57604C52.2531 6.38001 52.4622 5.19356 52.8669 4.06808C53.2985 3.05938 53.9836 2.17948 54.8558 1.51394C55.7019 0.855826 56.6844 0.395317 57.7314 0.166152C58.7785 -0.0630126 59.8636 -0.0550272 60.9072 0.189524C61.9507 0.434076 62.9264 0.908997 63.7626 1.57949C64.5989 2.24999 65.2745 3.09908 65.74 4.06454C66.2417 5.09609 66.3229 6.23715 66.4007 7.33934C66.4854 8.54752 66.5667 9.68858 67.1602 10.6989C67.6548 11.5432 68.5026 12.1297 69.3222 12.6949C69.5554 12.8539 69.785 13.0128 70.0075 13.1753C70.9826 13.8819 72.1272 15.0477 71.9894 16.4819C71.966 16.7002 71.9259 16.9163 71.8693 17.1284C71.8104 17.3506 71.7714 17.5776 71.7527 17.8067C71.7032 18.8665 72.5334 19.6967 73.3353 20.5092C73.4696 20.647 73.6038 20.7812 73.731 20.9155C75.0293 22.3086 75.9101 24.0385 76.273 25.9079C76.6359 27.7773 76.4663 29.7111 75.7835 31.4888C75.7708 31.5185 75.7497 31.5438 75.7226 31.5614C75.6955 31.579 75.6639 31.5882 75.6316 31.5877Z" fill="#231F20"/>
<path d="M50.549 21.569L43.9005 36.1342L37.4286 28.8887L32.0342 31.4322C32.0342 31.4322 43.9464 49.4101 47.2247 47.7745C50.5031 46.1388 55.2016 31.6265 55.2016 31.6265L50.549 21.569Z" fill="#F0B73F"/>
<path d="M59.1265 17.5207C59.1265 17.5207 51.9199 18.312 50.2242 21.7988C48.5285 25.2855 48.9135 41.4546 48.9135 41.4546L75.5041 44.3055C75.5041 44.3055 74.8293 31.012 73.5752 25.1124C72.3211 19.2128 68.4882 15.3233 59.1265 17.5207Z" fill="#F0B73F"/>
<path d="M56.9932 19.2835L59.6709 33.7075L63.3732 17.9022L56.9932 19.2835Z" fill="#231F20"/>
<path d="M59.6702 33.8733C59.6351 33.871 59.6016 33.8574 59.5748 33.8345C59.548 33.8115 59.5295 33.7805 59.5219 33.7461L56.837 19.3115C56.8306 19.2719 56.8394 19.2312 56.8617 19.1978C56.8839 19.1644 56.9181 19.1406 56.9571 19.1313L63.3407 17.7501C63.3665 17.7455 63.393 17.7469 63.4181 17.7543C63.4432 17.7616 63.4663 17.7747 63.4855 17.7925C63.5027 17.812 63.5151 17.8352 63.5219 17.8604C63.5286 17.8855 63.5295 17.9118 63.5244 17.9373L59.8221 33.7426C59.817 33.7791 59.7988 33.8125 59.7708 33.8365C59.7429 33.8606 59.7071 33.8736 59.6702 33.8733ZM57.1726 19.3892L59.6879 32.9336L63.1641 18.0963L57.1726 19.3892Z" fill="#231F20"/>
<path d="M57.0176 15.0795L56.9928 19.2834C56.9928 19.2834 57.4168 21.6362 59.9744 20.9191C60.7292 20.6997 61.4257 20.3152 62.0135 19.7934C62.6013 19.2716 63.0656 18.6256 63.3729 17.9022L63.0832 10.6213C63.0832 10.314 61.8291 9.14816 61.8785 6.47392C60.9777 6.46658 60.0883 6.27146 59.2672 5.90102C58.446 5.53058 57.7111 4.99297 57.1094 4.32251C57.1094 4.32251 56.0496 5.92635 55.5762 6.44212C55.2037 6.82265 54.8809 7.24878 54.6153 7.71036C54.1808 8.51934 54.1985 9.52969 54.2197 10.427C54.2291 11.4942 54.3355 12.5584 54.5376 13.6064C54.9474 15.5671 57.0176 15.0795 57.0176 15.0795Z" fill="white"/>
<path d="M59.0669 21.2157C58.6509 21.2245 58.2411 21.1129 57.887 20.8942C57.3421 20.5239 56.9622 19.9565 56.8272 19.3116L56.8484 15.2702C56.2914 15.3542 55.7224 15.2471 55.234 14.9664C55.0051 14.813 54.8103 14.6139 54.662 14.3817C54.5137 14.1495 54.4149 13.8891 54.372 13.6169C54.1677 12.5692 54.0601 11.5049 54.0505 10.4375C54.0329 9.57197 54.0081 8.49804 54.4638 7.63959C54.7374 7.15887 55.0709 6.7149 55.4565 6.31837C55.9087 5.82732 56.965 4.24115 56.9756 4.22702C56.9892 4.20554 57.0079 4.18782 57.0302 4.17547C57.0524 4.16313 57.0773 4.15656 57.1028 4.15636C57.128 4.15336 57.1535 4.15738 57.1766 4.16798C57.1996 4.17858 57.2193 4.19534 57.2335 4.21642C57.8229 4.86679 58.5397 5.389 59.3395 5.7506C60.1393 6.11219 61.0049 6.30545 61.8825 6.31837C61.9037 6.31824 61.9248 6.32258 61.9443 6.3311C61.9637 6.33962 61.9812 6.35213 61.9955 6.36783C62.0108 6.38234 62.0227 6.39992 62.0307 6.41941C62.0386 6.4389 62.0423 6.45985 62.0415 6.48087C61.9872 7.77683 62.3325 9.05816 63.0306 10.1513C63.1353 10.2907 63.2088 10.4509 63.2461 10.6212C63.2461 10.6212 63.2461 10.7837 63.5358 17.9021C63.5392 17.9219 63.5392 17.9422 63.5358 17.9621C63.223 18.7118 62.7452 19.3813 62.1378 19.9208C61.5304 20.4603 60.8092 20.8558 60.0278 21.0779C59.7155 21.1685 59.3921 21.2149 59.0669 21.2157ZM57.1522 19.2833C57.2824 19.825 57.6051 20.3008 58.0601 20.6222C58.344 20.7781 58.658 20.8714 58.981 20.8957C59.3039 20.9201 59.6284 20.875 59.9324 20.7635C60.656 20.5501 61.3243 20.1812 61.8905 19.6827C62.4568 19.1842 62.9073 18.568 63.2108 17.8773C63.1896 17.3404 62.9246 10.6848 62.9211 10.6282C62.8761 10.5187 62.8193 10.4145 62.7515 10.3174C62.052 9.21752 61.692 7.93599 61.7165 6.63278C59.9776 6.57535 58.3298 5.84146 57.124 4.58735C56.6815 5.26423 56.2039 5.9175 55.6932 6.54446C55.3321 6.91577 55.0177 7.32981 54.7571 7.77737C54.3402 8.56163 54.3614 9.54371 54.3826 10.4128C54.3915 11.4668 54.4956 12.518 54.6935 13.5533C54.7276 13.7815 54.8078 14.0004 54.9293 14.1966C55.0508 14.3927 55.2109 14.5621 55.4 14.6944C55.8804 14.9543 56.4378 15.0345 56.9721 14.9205C56.9954 14.9148 57.0197 14.9147 57.043 14.9202C57.0663 14.9258 57.088 14.9367 57.1063 14.9523C57.1257 14.9674 57.1414 14.9867 57.1524 15.0087C57.1634 15.0307 57.1694 15.0549 57.1699 15.0794L57.1416 19.2833H57.1522Z" fill="#231F20"/>
<path d="M57.0428 17.1426C57.0428 17.1426 58.7491 17.2203 59.8478 16.0828C60.1619 15.7932 60.4092 15.4388 60.5727 15.0441C60.7362 14.6495 60.8119 14.224 60.7945 13.7971C60.7945 13.7971 58.9505 15.0371 57.0322 15.0795L57.0428 17.1426Z" fill="#231F20"/>
<path d="M57.1167 17.3015H57.0354C56.9957 17.3006 56.958 17.2842 56.9303 17.2558C56.9025 17.2274 56.887 17.1893 56.887 17.1496L56.8623 15.083C56.8623 15.0424 56.8782 15.0034 56.9066 14.9743C56.935 14.9453 56.9736 14.9285 57.0142 14.9275C58.8618 14.8852 60.6776 13.684 60.6953 13.6734C60.7178 13.6604 60.7434 13.6536 60.7695 13.6536C60.7955 13.6536 60.8211 13.6604 60.8436 13.6734C60.8679 13.684 60.8891 13.7006 60.9052 13.7216C60.9212 13.7426 60.9317 13.7674 60.9355 13.7936C60.9355 13.843 61.0945 15.03 59.9569 16.2064C59.1857 16.9223 58.1688 17.3143 57.1167 17.3015ZM57.1732 15.2278L57.1944 16.9942C58.1381 16.9794 59.043 16.6157 59.7344 15.9732C60.2478 15.4726 60.5649 14.8046 60.6282 14.0903C59.5767 14.7246 58.3958 15.1134 57.1732 15.2278Z" fill="#231F20"/>
<path d="M57.4911 8.90442C57.4911 8.90442 56.1381 10.911 56.4595 11.2643C56.781 11.6175 57.6819 11.3844 57.6819 11.3844" fill="white"/>
<path d="M57.0848 11.6175C56.9511 11.6285 56.8166 11.6126 56.6891 11.5707C56.5617 11.5289 56.444 11.4619 56.3429 11.3737C55.9896 10.9887 56.8304 9.60738 57.3603 8.80899C57.3712 8.7911 57.3857 8.77561 57.4028 8.76344C57.4199 8.75128 57.4392 8.7427 57.4597 8.73821C57.4802 8.73373 57.5014 8.73344 57.522 8.73735C57.5426 8.74127 57.5622 8.74931 57.5796 8.761C57.597 8.77268 57.6118 8.78777 57.6233 8.80535C57.6347 8.82294 57.6424 8.84265 57.6461 8.8633C57.6497 8.88396 57.6491 8.90513 57.6443 8.92555C57.6395 8.94596 57.6306 8.9652 57.6182 8.9821C56.9505 9.98185 56.463 10.9993 56.5761 11.1618C56.7845 11.3914 57.431 11.2889 57.6359 11.236C57.6746 11.2287 57.7147 11.2364 57.7479 11.2575C57.7812 11.2786 57.8052 11.3116 57.8151 11.3498C57.825 11.3879 57.82 11.4284 57.8011 11.463C57.7823 11.4976 57.751 11.5238 57.7136 11.5362C57.5078 11.5872 57.2968 11.6144 57.0848 11.6175Z" fill="#231F20"/>
<path d="M56.0498 12.4087C56.0498 12.4087 57.2615 14.2033 59.3953 12.4758L56.0498 12.4087Z" fill="white"/>
<path d="M57.6147 13.3838C57.5142 13.3839 57.4138 13.3768 57.3144 13.3626C56.7478 13.2691 56.2404 12.9571 55.9013 12.4936C55.8784 12.4594 55.87 12.4175 55.8779 12.3771C55.8859 12.3367 55.9095 12.3011 55.9437 12.2781C55.9605 12.2663 55.9795 12.258 55.9995 12.2537C56.0196 12.2494 56.0404 12.2493 56.0605 12.2532C56.0806 12.2572 56.0998 12.2652 56.1167 12.2767C56.1337 12.2883 56.1481 12.3032 56.1592 12.3205C56.4519 12.7065 56.8797 12.9676 57.3568 13.0517C57.9503 13.1401 58.6003 12.9034 59.2786 12.3452C59.2945 12.3324 59.3129 12.3229 59.3326 12.3172C59.3522 12.3115 59.3728 12.3097 59.3932 12.312C59.4136 12.3143 59.4333 12.3206 59.4512 12.3306C59.4691 12.3405 59.4849 12.3539 59.4976 12.3699C59.511 12.3855 59.5212 12.4036 59.5275 12.4232C59.5337 12.4428 59.5359 12.4635 59.5339 12.484C59.5319 12.5045 59.5258 12.5243 59.5159 12.5424C59.506 12.5604 59.4926 12.5763 59.4764 12.589C58.9651 13.0592 58.3079 13.3398 57.6147 13.3838Z" fill="#231F20"/>
<path d="M52.0714 41.2638C52.0298 41.261 51.991 41.2421 51.9633 41.2111C51.9355 41.18 51.9211 41.1393 51.923 41.0977L52.9263 24.4093C52.9267 24.3889 52.9313 24.3687 52.9399 24.3502C52.9484 24.3316 52.9607 24.315 52.9759 24.3014C52.9912 24.2878 53.0091 24.2775 53.0285 24.2711C53.0479 24.2648 53.0685 24.2625 53.0888 24.2645C53.1097 24.2649 53.1303 24.2696 53.1493 24.2783C53.1683 24.287 53.1853 24.2995 53.1992 24.3151C53.2131 24.3307 53.2237 24.349 53.2302 24.3689C53.2368 24.3887 53.2391 24.4097 53.2372 24.4305L52.2339 41.1154C52.233 41.1358 52.2281 41.1559 52.2194 41.1744C52.2107 41.1929 52.1985 41.2095 52.1834 41.2233C52.1683 41.2371 52.1507 41.2477 52.1314 41.2547C52.1122 41.2616 52.0918 41.2647 52.0714 41.2638Z" fill="#231F20"/>
<path d="M71.1873 43.2279C71.3109 43.5812 75.3064 55.1331 70.7245 59.2592C65.8388 63.6539 41.1276 61.34 41.1276 61.34L38.4287 53.0134C38.1284 50.0566 37.9765 47.9723 43.7559 47.4318L51.8458 45.775L52.0719 41.1083L71.1873 43.2279Z" fill="#231F20"/>
<path d="M54.6435 62.1031H54.0818C47.3697 62.0748 41.1628 61.499 41.1027 61.4955C41.072 61.4926 41.0428 61.4806 41.0189 61.4611C40.995 61.4416 40.9774 61.4155 40.9685 61.386L38.273 53.0629C38.1105 51.5121 37.9621 50.0778 38.8241 49.0286C39.6084 48.0712 41.1698 47.5166 43.731 47.2623L51.6866 45.6337L51.9057 41.0836C51.9069 41.0624 51.9126 41.0417 51.9223 41.0228C51.9321 41.004 51.9456 40.9874 51.9622 40.9741C51.9778 40.9599 51.9963 40.9493 52.0165 40.9432C52.0367 40.9371 52.0579 40.9356 52.0788 40.9387L71.1942 43.0584C71.2238 43.0616 71.2519 43.0733 71.2751 43.0921C71.2983 43.1109 71.3155 43.136 71.3249 43.1643L71.1765 43.2138L71.3319 43.1891C71.7488 44.422 75.2744 55.3486 70.8197 59.3582C68.8167 61.1846 63.3692 62.1031 54.6435 62.1031ZM41.244 61.1917C42.9786 61.3471 65.9976 63.3113 70.6219 59.1427C74.8611 55.3274 71.5686 44.8671 71.0705 43.3692L52.2201 41.292L52.0046 45.7927C52.0022 45.8274 51.9884 45.8604 51.9655 45.8866C51.9425 45.9127 51.9115 45.9306 51.8774 45.9375L43.7876 47.5943C41.297 47.8275 39.8027 48.3503 39.0749 49.237C38.2942 50.1838 38.4355 51.558 38.5839 53.0099L41.244 61.1917Z" fill="#231F20"/>
<path d="M45.2286 53.8155C45.2286 53.8155 43.9462 47.6368 39.2831 49.0358C34.6199 50.4347 44.9954 73.4113 44.9954 74.9198C44.9954 76.4282 41.0317 80.9819 41.0317 80.9819C42.1639 80.9212 43.2923 80.8033 44.4125 80.6286C45.6384 80.3954 49.005 75.4991 49.1357 74.9763C49.2664 74.4535 46.8042 58.249 45.2286 53.8155Z" fill="white"/>
<path d="M41.0321 81.1443C41.0018 81.144 40.9721 81.1353 40.9465 81.119C40.9209 81.1028 40.9004 81.0798 40.8872 81.0525C40.8737 81.0238 40.8688 80.9918 40.8732 80.9605C40.8776 80.9291 40.8911 80.8996 40.9119 80.8758C42.0035 79.6217 44.8368 76.1138 44.8368 74.9197C44.8368 74.5664 44.162 72.7824 43.3071 70.5144C40.8342 63.9436 36.6869 52.9429 38.2695 49.7422C38.3611 49.5385 38.4946 49.3564 38.6614 49.2079C38.8282 49.0593 39.0245 48.9477 39.2375 48.8803C39.775 48.6941 40.3463 48.6258 40.9126 48.6801C41.4789 48.7343 42.0269 48.9098 42.5193 49.1947C44.6389 50.4558 45.3455 53.5293 45.3843 53.7872C46.8963 58.0511 49.4469 74.3404 49.295 75.0257C49.1855 75.5167 45.7623 80.5508 44.4446 80.8052C43.3174 80.9807 42.1819 81.0986 41.0427 81.1584L41.0321 81.1443ZM40.6011 48.9968C40.1697 48.9995 39.7411 49.0662 39.3293 49.1947C39.1578 49.2503 39.0002 49.3422 38.8674 49.4642C38.7345 49.5861 38.6294 49.7351 38.5592 49.9012C37.0366 52.9746 41.3111 64.3216 43.6109 70.4155C44.6283 73.118 45.1582 74.5452 45.1582 74.9338C45.1582 76.2798 42.2862 79.7701 41.403 80.8122C42.0777 80.7663 43.4908 80.6568 44.3846 80.4872C45.5115 80.2717 48.8676 75.4567 48.9771 74.955C49.0866 74.4534 46.6773 58.3832 45.0911 53.8861C45.0911 53.8861 45.0911 53.8861 45.0911 53.8649C45.0911 53.8437 44.4093 50.6855 42.371 49.4844C41.8379 49.1598 41.2251 48.9898 40.6011 48.9933V48.9968Z" fill="#231F20"/>
<path d="M40.7988 80.5932C40.4735 80.6272 40.1626 80.7455 39.8968 80.9363C39.6311 81.1271 39.4196 81.3838 39.2833 81.6812C38.8559 82.6916 40.6964 83.2745 42.3921 83.3522C43.8756 83.4093 45.3585 83.2256 46.7832 82.8082C47.3527 82.5289 47.8561 82.1315 48.2599 81.6424C48.2599 81.6424 48.2599 82.8859 48.6873 82.847C49.2993 82.8162 49.909 82.7514 50.5137 82.6527C50.6692 82.575 50.0086 77.7564 49.136 74.9762C49.136 74.9762 45.6033 79.9714 44.4905 80.2046C43.3777 80.4377 40.7988 80.5932 40.7988 80.5932Z" fill="#231F20"/>
<path d="M42.8867 83.5182C42.7207 83.5182 42.5511 83.5182 42.3851 83.5182C41.2016 83.4652 39.6543 83.1438 39.2056 82.4196C39.1312 82.3033 39.0873 82.1702 39.078 82.0325C39.0688 81.8947 39.0944 81.7569 39.1526 81.6318C39.2982 81.3068 39.5271 81.0261 39.8163 80.8182C40.1054 80.6103 40.4444 80.4827 40.7989 80.4483C40.8236 80.4483 43.3636 80.2893 44.4658 80.0633C45.3419 79.8796 48.048 76.2727 49.0159 74.8985C49.0321 74.874 49.0552 74.855 49.0822 74.8437C49.1093 74.8323 49.139 74.8293 49.1678 74.8349C49.1964 74.839 49.2231 74.8511 49.245 74.8699C49.2669 74.8887 49.283 74.9133 49.2915 74.9409C49.7502 76.5361 50.1089 78.1584 50.3654 79.7983C50.8317 82.6633 50.6763 82.741 50.5844 82.787C50.095 82.8981 49.5954 82.9585 49.0936 82.9671L48.7015 82.9989C48.6506 83.0036 48.5993 82.9972 48.5511 82.9801C48.5029 82.963 48.459 82.9357 48.4224 82.9C48.2328 82.6456 48.1289 82.3376 48.1257 82.0204C47.7649 82.4145 47.3273 82.7307 46.8398 82.9495C45.5567 83.33 44.225 83.5216 42.8867 83.5182ZM40.8095 80.7486C40.5125 80.7788 40.2287 80.8864 39.9863 81.0605C39.7439 81.2347 39.5515 81.4695 39.4282 81.7413C39.3893 81.8204 39.3717 81.9083 39.3773 81.9963C39.3828 82.0843 39.4114 82.1694 39.46 82.2429C39.7744 82.741 40.9826 83.1332 42.3992 83.1967C43.8624 83.2534 45.3252 83.0721 46.7303 82.6598C47.2746 82.3912 47.7561 82.0108 48.1433 81.5435C48.1637 81.5187 48.1912 81.5008 48.2221 81.4923C48.253 81.4837 48.2858 81.485 48.316 81.4958C48.3461 81.5066 48.3722 81.5265 48.3907 81.5528C48.4091 81.579 48.4189 81.6103 48.4189 81.6424C48.4189 81.9956 48.486 82.5397 48.6344 82.6739C48.6398 82.6797 48.6464 82.6842 48.6537 82.6872C48.661 82.6903 48.6689 82.6918 48.6768 82.6916L49.0724 82.6598C49.4257 82.6315 50.1499 82.575 50.3866 82.5291C50.4149 81.9003 49.8461 77.9189 49.083 75.3259C48.2917 76.4281 45.5503 80.141 44.5259 80.3565C43.2944 80.5494 42.0541 80.6803 40.8095 80.7486Z" fill="#231F20"/>
<path d="M55.9578 74.9976C55.9578 74.9976 53.9336 55.0202 53.0009 51.2897C52.0683 47.5592 46.7057 46.3934 45.0736 50.9011C43.4415 55.4088 51.5243 73.1323 50.9025 74.9976C50.2808 76.8628 47.9492 80.505 47.9492 80.505C47.9492 80.505 50.4221 81.7485 52.2238 80.505C54.0254 79.2615 55.9578 74.9976 55.9578 74.9976Z" fill="white"/>
<path d="M50.3165 81.2326C49.4731 81.2129 48.643 81.0181 47.879 80.6603C47.8588 80.6497 47.8409 80.6352 47.8263 80.6176C47.8118 80.6 47.8008 80.5797 47.7942 80.5579C47.7836 80.5132 47.7913 80.4662 47.8154 80.4272C47.8366 80.3918 50.1434 76.7708 50.751 74.9444C50.9736 74.2768 49.8396 70.9631 48.6314 67.4587C46.5118 61.3118 43.8976 53.6812 44.9186 50.855C45.6251 48.8661 47.183 47.7321 49.0447 47.831C50.0052 47.8917 50.9213 48.2565 51.6606 48.8726C52.3999 49.4886 52.9239 50.324 53.1568 51.2578C54.0824 54.9565 56.0925 74.789 56.1137 74.9868C56.1204 75.0147 56.1204 75.0438 56.1137 75.0716C56.0324 75.2482 54.1318 79.3992 52.3266 80.6533C51.7334 81.0514 51.0306 81.254 50.3165 81.2326ZM48.1969 80.4448C48.7692 80.6851 50.7122 81.3775 52.1429 80.3812C53.7856 79.2402 55.6014 75.4002 55.8028 74.9692C55.6968 73.9094 53.7538 54.9212 52.8565 51.3284C52.6402 50.4622 52.1539 49.6873 51.468 49.1157C50.7821 48.5442 49.9322 48.2056 49.0412 48.149C47.3384 48.0571 45.9077 49.1134 45.2365 50.9751C44.2544 53.6847 46.9675 61.5944 48.9494 67.3704C50.4684 71.7898 51.3127 74.3298 51.069 75.0646C50.5037 76.7108 48.6455 79.7136 48.1863 80.4448H48.1969Z" fill="#231F20"/>
<path d="M47.9495 80.5048C47.2407 80.8352 46.5961 81.2885 46.0454 81.8437C45.406 82.6032 44.8231 82.953 45.6921 83.5359C46.5611 84.1187 52.0509 83.709 52.8034 83.4758C53.5559 83.2426 54.8453 81.4374 54.8453 81.4374C54.8453 81.4374 54.7852 83.4758 55.0184 83.5359C55.5358 83.5146 56.0502 83.446 56.5551 83.331C56.7304 80.5454 56.5344 77.7489 55.9722 75.015C55.9722 75.015 54.0822 79.2896 51.7012 80.1515C49.3202 81.0135 47.9495 80.5048 47.9495 80.5048Z" fill="#231F20"/>
<path d="M48.1857 83.9987C47.0022 83.9987 45.9707 83.9139 45.6103 83.6772C45.4842 83.614 45.3733 83.524 45.2855 83.4136C45.1976 83.3032 45.1349 83.175 45.1016 83.0378C45.0628 82.7128 45.3136 82.4337 45.6351 82.084L45.9283 81.7555C46.4908 81.1793 47.1541 80.7111 47.8854 80.3742C47.9239 80.3585 47.967 80.3585 48.0055 80.3742C48.0055 80.3742 49.3515 80.8617 51.6477 80.0209C53.944 79.1801 55.7951 74.9798 55.8127 74.9374C55.8265 74.9075 55.8492 74.8826 55.8776 74.8662C55.9061 74.8497 55.939 74.8425 55.9717 74.8455C56.0047 74.8492 56.0357 74.863 56.0605 74.8852C56.0852 74.9074 56.1023 74.9367 56.1095 74.9692C56.6705 77.7187 56.8664 80.5302 56.6924 83.331C56.6906 83.3641 56.6778 83.3956 56.6561 83.4206C56.6343 83.4456 56.6048 83.4626 56.5723 83.4688C56.054 83.606 55.5219 83.6842 54.9861 83.702C54.8801 83.6737 54.6682 83.6207 54.6823 81.9356C54.2513 82.4938 53.4317 83.4653 52.8524 83.6455C51.3097 83.8956 49.7484 84.0138 48.1857 83.9987ZM47.9596 80.6815C47.291 80.9976 46.6834 81.4294 46.165 81.9568C46.0625 82.0769 45.9601 82.19 45.8682 82.2924C45.5997 82.5856 45.3878 82.8153 45.4125 82.999C45.4125 83.1226 45.5468 83.2604 45.7658 83.4158C46.55 83.9387 51.895 83.5995 52.7428 83.3381C53.3257 83.1615 54.3537 81.8473 54.7035 81.3563C54.7228 81.3288 54.7504 81.3082 54.7823 81.2978C54.8142 81.2873 54.8487 81.2874 54.8805 81.2982C54.9123 81.3089 54.9398 81.3297 54.9588 81.3573C54.9779 81.385 54.9874 81.4181 54.9861 81.4516C54.9451 82.102 54.9771 82.7549 55.0815 83.3982C55.5171 83.3598 55.9493 83.289 56.3744 83.1862C56.5206 80.6119 56.3534 78.0294 55.8763 75.4955C55.3288 76.626 53.7285 79.5829 51.736 80.3106C49.6023 81.0984 48.2669 80.7769 47.9596 80.6815Z" fill="#231F20"/>
<path d="M72.2334 51.7277C72.4772 52.081 73.2543 59.7222 73.2543 59.7222C73.2543 59.7222 81.9165 60.5064 82.0401 59.8988C82.1638 59.2912 77.6243 57.7474 77.6243 57.7474L76.2112 51.6888" fill="white"/>
<path d="M80.2913 60.2909C79.6413 60.2909 78.7687 60.2661 77.5923 60.199C75.4339 60.0824 73.2613 59.8881 73.2401 59.8846C73.2023 59.8815 73.1669 59.8654 73.1398 59.8389C73.1127 59.8125 73.0957 59.7774 73.0917 59.7398C72.7985 56.8536 72.2686 52.1445 72.0955 51.8124C72.0837 51.7948 72.0755 51.7751 72.0714 51.7543C72.0673 51.7336 72.0674 51.7122 72.0716 51.6915C72.0759 51.6707 72.0843 51.6511 72.0963 51.6336C72.1083 51.6162 72.1236 51.6013 72.1414 51.5898C72.1781 51.567 72.2223 51.5595 72.2645 51.5687C72.3067 51.5779 72.3437 51.6033 72.3675 51.6393C72.6077 51.9926 73.2012 57.6449 73.399 59.5737C77.2532 59.927 81.3794 60.1072 81.8775 59.8422C81.7256 59.4889 79.5565 58.5704 77.5747 57.8992C77.5492 57.8911 77.5262 57.8764 77.5082 57.8565C77.4902 57.8366 77.4778 57.8124 77.4722 57.7862L76.0592 51.7241C76.0496 51.6824 76.0568 51.6386 76.0793 51.6023C76.1018 51.5659 76.1377 51.5399 76.1793 51.5298C76.2214 51.5213 76.2651 51.5294 76.3013 51.5524C76.3376 51.5755 76.3635 51.6117 76.3736 51.6534L77.7866 57.6237C79.553 58.2207 82.3509 59.2876 82.2237 59.927C82.1672 60.0824 82.1248 60.2909 80.2913 60.2909Z" fill="#231F20"/>
<path d="M73.3319 24.6884L79.2421 53.4974L71.0922 53.7094C71.0922 53.7094 68.266 38.4552 68.0929 36.1661C67.9198 33.8769 73.3319 24.6884 73.3319 24.6884Z" fill="#F0B73F"/>
<path d="M55.2653 10.3632C56.2818 10.3632 57.1059 9.53916 57.1059 8.52266C57.1059 7.50616 56.2818 6.68213 55.2653 6.68213C54.2488 6.68213 53.4248 7.50616 53.4248 8.52266C53.4248 9.53916 54.2488 10.3632 55.2653 10.3632Z" fill="white"/>
<path d="M55.2688 10.5258H55.1875C54.7923 10.5108 54.4104 10.379 54.0901 10.147C53.7699 9.91494 53.5256 9.59316 53.3882 9.22229C53.2508 8.85143 53.2265 8.44816 53.3183 8.06347C53.4101 7.67879 53.614 7.32997 53.9041 7.06115C54.1941 6.79232 54.5574 6.61555 54.948 6.5532C55.3385 6.49085 55.7388 6.54572 56.0981 6.71087C56.4575 6.87602 56.7598 7.14403 56.9668 7.48101C57.1739 7.81798 57.2763 8.20879 57.2612 8.60399H57.0987H57.2612C57.2403 9.1198 57.021 9.60761 56.6491 9.96567C56.2772 10.3237 55.7815 10.5244 55.2653 10.5258H55.2688ZM55.2688 6.84471C54.7893 6.85356 54.3326 7.0514 53.9982 7.39519C53.6638 7.73899 53.4787 8.20093 53.4831 8.68052C53.4875 9.16011 53.6811 9.61855 54.0218 9.95612C54.3625 10.2937 54.8227 10.4831 55.3023 10.4831C55.782 10.4831 56.2422 10.2937 56.5829 9.95612C56.9236 9.61855 57.1172 9.16011 57.1216 8.68052C57.126 8.20093 56.9409 7.73899 56.6065 7.39519C56.2721 7.0514 55.8154 6.85356 55.3359 6.84471H55.2688Z" fill="#231F20"/>
<path d="M59.321 10.5259C60.3375 10.5259 61.1615 9.70188 61.1615 8.68538C61.1615 7.66888 60.3375 6.84485 59.321 6.84485C58.3045 6.84485 57.4805 7.66888 57.4805 8.68538C57.4805 9.70188 58.3045 10.5259 59.321 10.5259Z" fill="white"/>
<path d="M59.3211 10.6847H59.2399C58.8455 10.6659 58.4655 10.5312 58.1474 10.2974C57.8293 10.0636 57.5872 9.7412 57.4515 9.3705C57.3157 8.99981 57.2923 8.59731 57.3842 8.21338C57.4761 7.82945 57.6792 7.48116 57.9681 7.21211C58.2592 6.94363 58.6233 6.76745 59.0144 6.70581C59.4055 6.64418 59.8062 6.69986 60.1657 6.86581C60.5252 7.03177 60.8275 7.30057 61.0343 7.63823C61.2411 7.9759 61.3432 8.36729 61.3277 8.76296C61.3076 9.27968 61.0881 9.76851 60.7153 10.1268C60.3424 10.4852 59.8453 10.6851 59.3282 10.6847H59.3211ZM59.3211 7.00368C59.1008 6.99951 58.8817 7.03878 58.6765 7.11925C58.4714 7.19972 58.284 7.31982 58.1253 7.47268C57.8046 7.78141 57.6197 8.20487 57.6113 8.64991C57.6029 9.09495 57.7716 9.52512 58.0803 9.84577C58.389 10.1664 58.8125 10.3513 59.2575 10.3597C59.478 10.3707 59.6983 10.3369 59.9054 10.2604C60.1124 10.1839 60.3018 10.0662 60.4622 9.91462C60.6244 9.76553 60.7554 9.58571 60.8476 9.38558C60.9398 9.18546 60.9913 8.96902 60.9991 8.74883C61.0125 8.30586 60.8497 7.87567 60.5464 7.55252C60.2431 7.22938 59.8241 7.03964 59.3812 7.02488L59.3211 7.00368Z" fill="#231F20"/>
<path d="M46.3453 38.9781C46.3232 38.9783 46.3013 38.9737 46.2811 38.9645C46.261 38.9554 46.2431 38.9419 46.2287 38.9251L38.3649 29.8603C38.3512 29.8446 38.3407 29.8264 38.3341 29.8066C38.3276 29.7869 38.325 29.766 38.3267 29.7452C38.3283 29.7245 38.3341 29.7043 38.3437 29.6858C38.3533 29.6673 38.3666 29.651 38.3826 29.6377C38.3968 29.623 38.4138 29.6112 38.4326 29.6032C38.4514 29.5952 38.4717 29.5911 38.4921 29.5911C38.5126 29.5911 38.5328 29.5952 38.5516 29.6032C38.5705 29.6112 38.5875 29.623 38.6016 29.6377L46.4654 38.7026C46.4791 38.7179 46.4895 38.7359 46.496 38.7553C46.5026 38.7748 46.5051 38.7954 46.5034 38.8159C46.5018 38.8363 46.496 38.8563 46.4864 38.8744C46.4768 38.8926 46.4637 38.9087 46.4477 38.9216C46.4355 38.9376 46.4201 38.9509 46.4025 38.9607C46.3848 38.9704 46.3654 38.9763 46.3453 38.9781Z" fill="#231F20"/>
<path d="M31.7803 12.2392L39.2378 9.37769L39.909 12.7973L32.395 15.2102L31.7803 12.2392Z" fill="#E6E7E8"/>
<path d="M55.4274 8.32668C55.4368 8.08688 55.3401 7.88839 55.2114 7.88334C55.0828 7.87828 54.9708 8.06858 54.9614 8.30837C54.952 8.54816 55.0486 8.74665 55.1773 8.75171C55.306 8.75676 55.4179 8.56647 55.4274 8.32668Z" fill="#231F20"/>
<path d="M59.5816 8.57631C59.5911 8.33651 59.4944 8.13802 59.3657 8.13297C59.2371 8.12791 59.1251 8.3182 59.1157 8.558C59.1063 8.79779 59.2029 8.99629 59.3316 9.00134C59.4603 9.0064 59.5722 8.8161 59.5816 8.57631Z" fill="#231F20"/>
<path d="M64.8324 10.1725C64.7922 10.1718 64.7538 10.1562 64.7244 10.1288C64.6951 10.1014 64.6769 10.0641 64.6734 10.0241C64.5921 9.05619 62.1228 9.02792 61.176 9.09858C61.1549 9.10051 61.1335 9.09817 61.1133 9.09171C61.093 9.08525 61.0743 9.0748 61.0581 9.06096C61.042 9.04713 61.0288 9.0302 61.0193 9.01118C61.0098 8.99215 61.0043 8.97142 61.0029 8.9502C61.0036 8.91061 61.0186 8.8726 61.0453 8.84333C61.072 8.81406 61.1084 8.79553 61.1478 8.79123C61.5293 8.76297 64.8677 8.55101 64.9913 10.01C64.9933 10.0314 64.991 10.0529 64.9845 10.0734C64.9781 10.0938 64.9677 10.1128 64.9539 10.1292C64.9401 10.1456 64.9232 10.1592 64.9042 10.169C64.8851 10.1789 64.8643 10.1849 64.843 10.1866L64.8324 10.1725Z" fill="#231F20"/>
<path d="M61.582 10.2609C61.6478 9.94881 61.8126 9.6663 62.0519 9.45545C62.2839 9.27139 62.5455 9.12805 62.8255 9.03153C62.9733 8.965 63.1333 8.9301 63.2954 8.92908C63.4095 8.94334 63.5198 8.97931 63.6204 9.03506C63.8672 9.14608 64.0664 9.34148 64.1821 9.58616C64.251 9.79191 64.2692 10.0113 64.2351 10.2256C64.216 10.4607 64.1661 10.6923 64.0867 10.9144C64.0037 11.1359 63.877 11.3384 63.7142 11.51C63.5514 11.6816 63.3558 11.8187 63.139 11.9133C62.9222 12.0078 62.6886 12.0579 62.4521 12.0605C62.2156 12.0631 61.981 12.0181 61.7622 11.9283" fill="white"/>
<path d="M62.4226 12.1968C62.1805 12.1959 61.9408 12.1492 61.7161 12.059C61.6978 12.0529 61.681 12.0431 61.6666 12.0302C61.6523 12.0173 61.6407 12.0016 61.6327 11.9841C61.6246 11.9665 61.6202 11.9476 61.6198 11.9283C61.6193 11.909 61.6229 11.8898 61.6301 11.872C61.6374 11.8541 61.6482 11.8379 61.6619 11.8244C61.6757 11.8108 61.692 11.8003 61.71 11.7933C61.728 11.7863 61.7472 11.7831 61.7665 11.7838C61.7858 11.7846 61.8047 11.7893 61.8221 11.7976C62.0243 11.8802 62.241 11.9216 62.4594 11.9193C62.6779 11.917 62.8937 11.8711 63.0941 11.7842C63.2945 11.6973 63.4756 11.5712 63.6266 11.4134C63.7776 11.2555 63.8955 11.069 63.9735 10.865C64.049 10.6544 64.0954 10.4345 64.1113 10.2114C64.1437 10.0189 64.1292 9.82131 64.0689 9.63559C63.9649 9.42451 63.7897 9.25688 63.5743 9.16221C63.4904 9.11425 63.398 9.08306 63.3023 9.07036C63.1618 9.07113 63.0232 9.10247 62.896 9.16221C62.6309 9.25424 62.3827 9.38909 62.1612 9.5614C61.9451 9.7519 61.7964 10.0072 61.7373 10.2891C61.7288 10.3251 61.7069 10.3565 61.676 10.3769C61.6452 10.3973 61.6077 10.405 61.5712 10.3986C61.5348 10.391 61.5028 10.3693 61.4823 10.3382C61.4618 10.3071 61.4544 10.2691 61.4617 10.2326C61.5334 9.89011 61.7144 9.58016 61.9775 9.34944C62.2208 9.15462 62.4956 9.00288 62.79 8.90079C62.9582 8.82339 63.142 8.78591 63.327 8.79128C63.4587 8.80546 63.5861 8.84633 63.7015 8.91139C63.9785 9.03584 64.2007 9.25684 64.3267 9.53314C64.4056 9.75991 64.4262 10.0029 64.3868 10.2397C64.3685 10.4882 64.3162 10.7331 64.2314 10.9674C64.0417 11.4411 63.6739 11.8216 63.2069 12.0272C62.9602 12.1381 62.693 12.1959 62.4226 12.1968Z" fill="#231F20"/>
<path d="M70.9753 53.1759C70.9372 53.1757 70.9005 53.1621 70.8715 53.1376C70.8424 53.1131 70.8229 53.0791 70.8163 53.0417L66.0189 23.7522C66.0153 23.7315 66.0159 23.7104 66.0206 23.6899C66.0252 23.6695 66.0339 23.6502 66.046 23.6331C66.0582 23.6161 66.0736 23.6016 66.0914 23.5905C66.1091 23.5794 66.1289 23.5719 66.1496 23.5685C66.1705 23.5644 66.192 23.5646 66.2129 23.569C66.2337 23.5734 66.2534 23.582 66.2709 23.5942C66.2884 23.6064 66.3032 23.6219 66.3145 23.64C66.3258 23.658 66.3334 23.6781 66.3368 23.6992L71.1342 52.9887C71.1377 53.0096 71.137 53.031 71.1321 53.0516C71.1273 53.0723 71.1183 53.0917 71.1058 53.1088C71.0933 53.1259 71.0775 53.1404 71.0593 53.1513C71.0411 53.1622 71.021 53.1694 71 53.1724L70.9753 53.1759Z" fill="#231F20"/>
<path d="M56.4879 46.1495C56.4646 46.1542 56.4405 46.1542 56.4172 46.1495C54.5696 45.3228 51.9166 45.9552 51.8883 45.9587C51.866 45.9645 51.8428 45.9658 51.82 45.9626C51.7973 45.9593 51.7754 45.9515 51.7556 45.9396C51.7359 45.9278 51.7187 45.9121 51.7051 45.8936C51.6915 45.875 51.6817 45.8539 51.6764 45.8316C51.6706 45.8088 51.6694 45.7851 51.6728 45.7619C51.6763 45.7387 51.6843 45.7165 51.6965 45.6964C51.7087 45.6763 51.7247 45.6589 51.7437 45.6451C51.7627 45.6313 51.7842 45.6214 51.8071 45.6161C51.9201 45.5878 54.605 44.9484 56.5621 45.828C56.6046 45.8473 56.6378 45.8827 56.6544 45.9264C56.6709 45.9701 56.6695 46.0185 56.6504 46.0612C56.6338 46.0892 56.6099 46.1122 56.5813 46.1278C56.5527 46.1433 56.5204 46.1508 56.4879 46.1495Z" fill="white"/>
<path d="M66.701 40.4335C66.672 40.434 66.6436 40.4254 66.6198 40.4088L62.6419 38.0878C62.6053 38.0664 62.5785 38.0314 62.5673 37.9905C62.5561 37.9496 62.5613 37.9059 62.5819 37.8688C62.604 37.8319 62.6395 37.805 62.6811 37.7938C62.7226 37.7826 62.7668 37.788 62.8045 37.8087L66.7999 40.1297C66.8368 40.1518 66.8637 40.1873 66.8749 40.2288C66.8861 40.2704 66.8807 40.3146 66.86 40.3522C66.8437 40.3792 66.8201 40.4011 66.7921 40.4155C66.764 40.4298 66.7324 40.4361 66.701 40.4335Z" fill="#231F20"/>
<path d="M53.7708 39.0382C53.7464 39.0389 53.7221 39.0338 53.7 39.0234C53.6779 39.0129 53.6586 38.9974 53.6436 38.9781C53.6301 38.9617 53.6201 38.9429 53.614 38.9226C53.608 38.9022 53.6061 38.8809 53.6084 38.8599C53.6107 38.8388 53.6172 38.8184 53.6275 38.7999C53.6378 38.7814 53.6517 38.7651 53.6683 38.752L56.0564 36.8302C56.0723 36.8132 56.0917 36.7998 56.1132 36.7909C56.1348 36.782 56.158 36.7778 56.1813 36.7787C56.2046 36.7795 56.2274 36.7854 56.2482 36.7959C56.2691 36.8063 56.2874 36.8212 56.302 36.8393C56.3166 36.8575 56.3271 36.8786 56.3328 36.9012C56.3385 36.9238 56.3393 36.9474 56.3351 36.9703C56.3309 36.9932 56.3219 37.015 56.3085 37.0341C56.2952 37.0532 56.2779 37.0692 56.2578 37.0811L53.8697 39.0028C53.8421 39.0263 53.807 39.0389 53.7708 39.0382Z" fill="#231F20"/>
<path d="M24.6542 71.5885C25.4092 70.9123 26.2634 70.3559 27.1871 69.9387C27.2648 72.6483 26.1662 75.1388 25.1488 76.8451H21.8457" fill="white"/>
<path d="M25.1489 77.0286H21.8458C21.8217 77.0286 21.7978 77.0238 21.7755 77.0146C21.7532 77.0054 21.733 76.9918 21.7159 76.9748C21.6989 76.9577 21.6853 76.9375 21.6761 76.9152C21.6669 76.8929 21.6621 76.869 21.6621 76.8449C21.6621 76.8208 21.6669 76.7969 21.6761 76.7746C21.6853 76.7523 21.6989 76.7321 21.7159 76.715C21.733 76.6979 21.7532 76.6844 21.7755 76.6752C21.7978 76.6659 21.8217 76.6612 21.8458 76.6612H25.0464C25.9614 75.1033 27.0071 72.7752 27.0106 70.2211C26.2022 70.6221 25.4503 71.1281 24.7744 71.726C24.7406 71.7597 24.6949 71.7786 24.6472 71.7786C24.5996 71.7786 24.5538 71.7597 24.5201 71.726C24.4862 71.6916 24.4672 71.6453 24.4672 71.5971C24.4672 71.5488 24.4862 71.5025 24.5201 71.4681C25.2888 70.775 26.1614 70.2064 27.106 69.783C27.1332 69.7723 27.1625 69.7683 27.1916 69.7712C27.2207 69.7741 27.2487 69.7839 27.2732 69.7998C27.2977 69.8157 27.3181 69.8372 27.3326 69.8625C27.3472 69.8879 27.3555 69.9163 27.3568 69.9455C27.4345 72.7399 26.2758 75.2976 25.2902 76.9509C25.2743 76.9739 25.2532 76.9929 25.2287 77.0064C25.2042 77.0199 25.1768 77.0275 25.1489 77.0286Z" fill="#231F20"/>
<path d="M19.9209 72.3196C20.7334 68.0804 24.0506 65.4167 24.0506 65.4167C24.6698 67.4114 24.8753 69.5115 24.6547 71.5884C24.4826 73.3794 24.0996 75.1438 23.5136 76.845H19.9562" fill="white"/>
<path d="M23.5134 77.0287H19.9559C19.932 77.0287 19.9083 77.0239 19.8862 77.0146C19.8641 77.0054 19.8441 76.9918 19.8273 76.9747C19.8105 76.9576 19.7973 76.9373 19.7885 76.915C19.7796 76.8928 19.7753 76.8689 19.7758 76.845C19.7758 76.7969 19.7946 76.7507 19.8283 76.7163C19.862 76.682 19.9078 76.6622 19.9559 76.6613H23.3826C23.9401 75.013 24.3063 73.3061 24.4742 71.5742C24.6812 69.614 24.5072 67.6324 23.962 65.7382C23.2343 66.3953 20.7826 68.8399 20.0972 72.3514C20.0942 72.3759 20.0862 72.3994 20.0737 72.4207C20.0612 72.4419 20.0445 72.4603 20.0246 72.4748C20.0047 72.4893 19.982 72.4996 19.9579 72.505C19.9339 72.5104 19.909 72.5108 19.8848 72.5062C19.8606 72.5016 19.8376 72.4921 19.8172 72.4783C19.7969 72.4644 19.7795 72.4466 19.7663 72.4258C19.7531 72.405 19.7443 72.3817 19.7405 72.3573C19.7366 72.333 19.7378 72.3081 19.744 72.2843C20.56 68.0451 23.909 65.3037 23.9408 65.2754C23.9636 65.2567 23.9908 65.2439 24.0198 65.2384C24.0488 65.2328 24.0787 65.2346 24.1068 65.2436C24.1348 65.2519 24.1603 65.2668 24.1813 65.2871C24.2022 65.3074 24.2179 65.3325 24.227 65.3602C24.8564 67.3783 25.0656 69.5039 24.8416 71.606C24.6673 73.4118 24.2795 75.1905 23.6865 76.905C23.675 76.9417 23.6518 76.9735 23.6206 76.9958C23.5894 77.0182 23.5517 77.0297 23.5134 77.0287Z" fill="#231F20"/>
<path d="M18.1648 76.845H21.3125C21.3407 75.9123 21.1288 74.5028 20.1184 72.6729C20.0513 72.5492 19.9842 72.4326 19.9171 72.3196C18.0942 69.232 16.4268 69.2674 16.4268 69.2674C15.7238 72.5139 17.211 75.4107 18.1648 76.845Z" fill="white"/>
<path d="M21.3129 77.0288H18.1653C18.1352 77.029 18.1056 77.0217 18.079 77.0075C18.0525 76.9933 18.0299 76.9727 18.0134 76.9475C17.0454 75.4885 15.5405 72.5458 16.2471 69.2286C16.2545 69.188 16.2758 69.1514 16.3075 69.1249C16.3391 69.0985 16.3789 69.0839 16.4202 69.0837C16.5014 69.0837 18.2148 69.0837 20.073 72.2278C20.1401 72.3444 20.2072 72.461 20.2743 72.5811C21.3341 74.4958 21.5178 75.9584 21.4896 76.8486C21.4887 76.8955 21.4699 76.9403 21.4371 76.9738C21.4042 77.0073 21.3598 77.027 21.3129 77.0288ZM18.2642 76.6755H21.1328C21.1328 75.817 20.9102 74.4888 19.9599 72.7895L19.7621 72.4363C18.3172 69.9916 16.996 69.5642 16.5827 69.49C15.975 72.5246 17.3422 75.2518 18.2642 76.6649V76.6755Z" fill="#231F20"/>
<path d="M18.7378 81.8367H24.9094L25.9056 76.8485H17.7451L18.7378 81.8367Z" fill="#231F20"/>
</svg>
