<svg width="108" height="84" viewBox="0 0 108 84" fill="none" xmlns="http://www.w3.org/2000/svg">
<path d="M68.667 77.6348C66.4022 77.8866 63.1966 78.04 58.667 77.9909L58.7701 76.1832C58.7701 76.1832 65.3077 75.957 65.9286 76.612C65.9286 76.612 66.0275 74.4228 65.1372 74.0058C65.1372 74.0058 66.4401 73.9723 68.0692 74.0667L68.126 76.9169C68.1288 77.0734 68.1819 77.2256 68.2784 77.3536C68.3748 77.4816 68.5102 77.5796 68.667 77.6348Z" fill="#F0B73F"/>
<path d="M73.667 77V75C74.0218 75.1648 74.3451 75.3835 74.624 75.6473C74.624 75.6473 74.9758 76.284 73.667 77Z" fill="#020202"/>
<path d="M65.0814 54.7967C64.9316 55.8635 64.7407 56.9198 64.5355 57.9719C64.3344 59.024 64.1087 60.0719 63.8789 61.1198C63.6408 62.1635 63.3966 63.2072 63.1319 64.2467C63.0847 64.4357 63.0355 64.6268 62.9842 64.8158C63.6552 64.7864 64.3324 64.7444 65.0014 64.6793C65.3707 64.6415 65.7401 64.6016 66.1013 64.5323C66.2826 64.4986 66.462 64.4551 66.6389 64.4021C66.8139 64.3585 66.9737 64.2662 67.1006 64.1354L67.1027 64.1333C67.1056 64.1299 67.109 64.127 67.1129 64.1249L65.0814 54.7967ZM61.478 66.3152C60.8948 66.503 60.2854 66.591 59.6742 66.5756C59.0777 66.5609 58.4833 66.4963 57.8971 66.3824C57.3123 66.2752 56.7357 66.1513 56.157 66.0253C54.9913 65.8113 53.8425 65.5102 52.7198 65.1245C51.6026 64.7241 50.5202 64.2289 49.4837 63.644L49.4816 63.6419C48.866 64.8368 48.394 65.6075 48.2011 65.6075C48.2011 65.6075 60.4273 71.9578 61.7571 69.3875L62.2742 67.3462C62.3522 66.794 62.4424 66.2437 62.5389 65.6956C62.2315 65.9759 61.8701 66.187 61.478 66.3152ZM49.4919 65.6201C49.4121 65.6172 49.3366 65.5827 49.2812 65.5239C49.2258 65.4652 49.1948 65.3867 49.1948 65.3051C49.1948 65.2234 49.2258 65.1449 49.2812 65.0862C49.3366 65.0274 49.4121 64.993 49.4919 64.9901C49.5716 64.993 49.6471 65.0274 49.7025 65.0862C49.7579 65.1449 49.7889 65.2234 49.7889 65.3051C49.7889 65.3867 49.7579 65.4652 49.7025 65.5239C49.6471 65.5827 49.5716 65.6172 49.4919 65.6201ZM50.563 66.1493C50.4833 66.1463 50.4078 66.1119 50.3524 66.0531C50.297 65.9944 50.266 65.9159 50.266 65.8343C50.266 65.7526 50.297 65.6741 50.3524 65.6154C50.4078 65.5566 50.4833 65.5222 50.563 65.5193C50.6428 65.5222 50.7183 65.5566 50.7737 65.6154C50.8291 65.6742 50.8601 65.7526 50.8601 65.8343C50.8601 65.9159 50.8291 65.9944 50.7737 66.0531C50.7183 66.1119 50.6428 66.1463 50.563 66.1493ZM51.745 66.6407C51.6653 66.6377 51.5898 66.6033 51.5344 66.5445C51.479 66.4858 51.448 66.4073 51.448 66.3257C51.448 66.244 51.479 66.1655 51.5344 66.1068C51.5898 66.048 51.6653 66.0136 51.745 66.0107C51.8248 66.0136 51.9003 66.048 51.9557 66.1068C52.0111 66.1655 52.0421 66.244 52.0421 66.3257C52.0421 66.4073 52.0111 66.4858 51.9557 66.5445C51.9003 66.6033 51.8248 66.6377 51.745 66.6407ZM53.0009 67.1699C52.9212 67.167 52.8456 67.1325 52.7902 67.0737C52.7348 67.015 52.7039 66.9365 52.7039 66.8549C52.7039 66.7732 52.7348 66.6947 52.7902 66.636C52.8456 66.5772 52.9212 66.5428 53.0009 66.5399C53.0806 66.5428 53.1562 66.5772 53.2116 66.636C53.267 66.6947 53.2979 66.7732 53.2979 66.8549C53.2979 66.9365 53.267 67.015 53.2116 67.0737C53.1562 67.1325 53.0806 67.167 53.0009 67.1699ZM54.2937 67.7369C54.214 67.734 54.1384 67.6995 54.083 67.6407C54.0276 67.582 53.9967 67.5035 53.9967 67.4219C53.9967 67.3402 54.0276 67.2618 54.083 67.203C54.1384 67.1442 54.214 67.1098 54.2937 67.1069C54.3734 67.1098 54.4489 67.1443 54.5043 67.203C54.5597 67.2618 54.5907 67.3402 54.5907 67.4219C54.5907 67.5035 54.5597 67.582 54.5043 67.6407C54.4489 67.6995 54.3734 67.7339 54.2937 67.7369ZM55.8081 68.3039C55.7284 68.3009 55.6529 68.2665 55.5975 68.2077C55.5421 68.149 55.5111 68.0705 55.5111 67.9889C55.5111 67.9072 55.5421 67.8287 55.5975 67.77C55.6529 67.7112 55.7284 67.6768 55.8081 67.6739C55.8879 67.6768 55.9634 67.7112 56.0188 67.77C56.0742 67.8288 56.1051 67.9072 56.1051 67.9889C56.1051 68.0705 56.0741 68.149 56.0188 68.2077C55.9634 68.2665 55.8879 68.3009 55.8081 68.3039ZM57.3595 68.8331C57.2797 68.8301 57.2042 68.7957 57.1488 68.7369C57.0934 68.6782 57.0625 68.5997 57.0625 68.5181C57.0625 68.4364 57.0934 68.3579 57.1488 68.2992C57.2042 68.2404 57.2797 68.206 57.3595 68.2031C57.4392 68.206 57.5147 68.2404 57.5701 68.2992C57.6255 68.358 57.6565 68.4364 57.6565 68.5181C57.6565 68.5997 57.6255 68.6782 57.5701 68.7369C57.5147 68.7957 57.4392 68.8301 57.3595 68.8331ZM58.9478 69.2111C58.868 69.2081 58.7925 69.1737 58.7371 69.1149C58.6817 69.0562 58.6508 68.9777 58.6508 68.8961C58.6508 68.8144 58.6817 68.7359 58.7371 68.6772C58.7925 68.6184 58.868 68.584 58.9478 68.5811C59.0275 68.584 59.103 68.6185 59.1584 68.6772C59.2138 68.736 59.2447 68.8144 59.2447 68.8961C59.2447 68.9777 59.2137 69.0561 59.1584 69.1149C59.103 69.1736 59.0275 69.2081 58.9478 69.2111ZM60.5361 69.3623C60.4563 69.3594 60.3808 69.3249 60.3254 69.2661C60.27 69.2074 60.239 69.1289 60.239 69.0473C60.239 68.9656 60.27 68.8871 60.3254 68.8284C60.3808 68.7696 60.4563 68.7352 60.5361 68.7323C60.6158 68.7352 60.6912 68.7697 60.7466 68.8285C60.8019 68.8872 60.8329 68.9656 60.8329 69.0473C60.8329 69.1289 60.8019 69.2073 60.7466 69.266C60.6912 69.3248 60.6158 69.3593 60.5361 69.3623ZM67.1232 64.1753C67.0135 64.3322 66.8617 64.4533 66.6861 64.5239C66.5132 64.608 66.3341 64.6782 66.1505 64.7339C65.7853 64.8431 65.4159 64.9292 65.0445 65.0006C64.3389 65.1267 63.6272 65.2129 62.9124 65.2589C62.8903 65.2945 62.8663 65.3288 62.8405 65.3618C62.7687 65.6348 62.6948 65.9078 62.6169 66.1787C62.6667 66.1411 62.7274 66.1218 62.7892 66.1241C62.869 66.127 62.9445 66.1614 62.9999 66.2202C63.0553 66.2789 63.0863 66.3574 63.0863 66.4391C63.0863 66.5207 63.0553 66.5992 62.9999 66.658C62.9445 66.7167 62.869 66.7512 62.7892 66.7541C62.7278 66.7566 62.6672 66.7385 62.6168 66.7025C62.5664 66.6665 62.5289 66.6145 62.5102 66.5546C62.4342 66.8192 62.3563 67.0837 62.2742 67.3462C62.2742 67.3462 67.3715 67.4219 67.667 66.6659L67.1232 64.1753ZM64.119 66.5651C64.0392 66.5621 63.9637 66.5277 63.9083 66.4689C63.8529 66.4102 63.822 66.3317 63.822 66.2501C63.822 66.1684 63.8529 66.0899 63.9083 66.0312C63.9637 65.9724 64.0392 65.938 64.119 65.9351C64.1987 65.938 64.2742 65.9724 64.3296 66.0312C64.385 66.09 64.416 66.1684 64.416 66.2501C64.416 66.3317 64.385 66.4102 64.3296 66.4689C64.2742 66.5277 64.1987 66.5621 64.119 66.5651ZM65.4118 66.3761C65.332 66.3731 65.2565 66.3387 65.2011 66.2799C65.1457 66.2212 65.1148 66.1427 65.1148 66.0611C65.1148 65.9794 65.1457 65.9009 65.2011 65.8422C65.2565 65.7834 65.332 65.749 65.4118 65.7461C65.4915 65.749 65.567 65.7835 65.6224 65.8422C65.6778 65.901 65.7087 65.9794 65.7087 66.0611C65.7087 66.1427 65.6778 66.2211 65.6224 66.2799C65.567 66.3387 65.4915 66.3731 65.4118 66.3761ZM66.7415 66.1115C66.6618 66.1086 66.5863 66.0741 66.5309 66.0153C66.4755 65.9566 66.4445 65.8781 66.4445 65.7965C66.4445 65.7148 66.4755 65.6364 66.5309 65.5776C66.5863 65.5188 66.6618 65.4844 66.7415 65.4815C66.8213 65.4844 66.8968 65.5188 66.9522 65.5776C67.0076 65.6363 67.0386 65.7148 67.0386 65.7965C67.0386 65.8781 67.0076 65.9566 66.9522 66.0154C66.8968 66.0741 66.8213 66.1086 66.7415 66.1115ZM65.1553 43.7591C63.1545 42.3269 55.1289 40.7561 50.1526 39.8888C48.9783 39.685 47.8994 39.0994 47.0759 38.2188C46.2524 37.3382 45.728 36.2095 45.5806 35L44.6326 35.0861C39.6768 54.467 32.667 44.6348 32.667 44.6348L32.7675 45.122C33.2929 47.3795 34.5405 49.2443 37.083 49.8071C37.083 49.8071 42.7714 51.8483 54.2219 50.5631L55.4039 50.4875C55.4039 50.4875 51.6198 59.4923 49.5021 63.6041L52.8408 64.7717C53.9551 65.1392 55.0427 65.6096 56.1857 65.8952C56.7557 66.0416 57.3362 66.1413 57.9217 66.1934C58.5022 66.2496 59.0858 66.2629 59.6681 66.2333C60.237 66.2129 60.7998 66.1068 61.3384 65.9183C61.8532 65.7361 62.2971 65.3893 62.6046 64.9292L62.6066 64.925C62.6285 64.894 62.6574 64.8688 62.6907 64.8515C62.7338 64.6247 62.7769 64.4 62.82 64.1732C63.0232 63.1211 63.2489 62.0732 63.4787 61.0253C63.7147 59.9816 63.9589 58.9358 64.2236 57.8984C64.4863 56.8589 64.7654 55.8236 65.0814 54.7967C65.0814 54.7967 68.1102 45.8759 65.1553 43.7591Z" fill="#12141D"/>
<path d="M48.3425 30.1445C48.4516 30.4282 48.5605 30.7119 48.667 30.9978C48.5123 31 48.3628 31 48.2132 31C48.1296 30.749 48.046 30.498 47.9648 30.2449C47.501 28.8372 47.0684 27.4222 46.667 26C47.2576 27.3728 47.8161 28.7542 48.3425 30.1445Z" fill="#020202"/>
<path d="M50.667 42C50.46 40.69 50.2635 39.3716 50.0773 38.0449C49.9364 37.0494 49.8008 36.0497 49.667 35.05C49.7285 35.0333 49.7874 35.0167 49.8436 35C49.9694 35.9809 50.0934 36.964 50.2111 37.9491C50.3744 39.2925 50.5263 40.6428 50.667 42Z" fill="#020202"/>
<path d="M36.0151 27.1546L35.1909 28.6665H35.1976C35.3788 28.7321 35.569 28.7736 35.7627 28.7895C36.0575 28.8166 36.4037 28.8396 36.7834 28.8542C36.5265 28.2869 36.2675 27.7218 36.0151 27.1546ZM37.7125 27.2672L36.9397 28.8604C37.4512 28.8792 38.0208 28.8896 38.6037 28.8896L37.7125 27.2672ZM40.3057 28.8708L39.5798 27.3172L38.8003 28.8917C39.3028 28.8917 39.8143 28.8875 40.3102 28.8813C40.3102 28.8771 40.3079 28.875 40.3057 28.8708ZM41.1768 27.2776L40.4978 28.8688C40.496 28.8725 40.4938 28.876 40.4911 28.8792C40.8618 28.8729 41.2214 28.8667 41.5587 28.8583L42.0635 28.8729L41.1768 27.2776ZM42.8564 27.165L42.1997 28.8688C42.1975 28.8708 42.1975 28.875 42.1953 28.8771L42.6375 28.8896C42.6375 28.8896 42.6397 28.8688 42.6442 28.8291C43.3723 28.8083 43.8436 28.7895 43.8436 28.7895L42.8564 27.165ZM44.4869 25.186C43.8436 22.108 44.0044 20.9068 44.0044 20.9068C44.041 20.5568 44.0522 20.205 44.0379 19.8537C43.9352 19.5784 44.0558 18.4481 44.0848 18.6066C44.1228 18.4163 44.1718 18.2002 44.2216 17.9913C44.2859 17.7214 44.2569 17.4394 44.1387 17.1859C44.0205 16.9324 43.8191 16.7204 43.5637 16.5805L38.8583 14C38.8583 14 33.7927 16.5525 33.3907 20.8317C32.9886 25.1109 32.667 30.6663 32.667 30.6663L34.8737 31L35.1909 28.6665L35.9816 27.0461C35.985 27.0394 35.9903 27.0337 35.997 27.0297C36.0038 27.0257 36.0116 27.0236 36.0195 27.0236C36.0275 27.0236 36.0353 27.0257 36.042 27.0297C36.0487 27.0337 36.0541 27.0394 36.0575 27.0461V27.0482C36.33 27.5946 36.5958 28.143 36.8616 28.6915L37.621 27.0273C37.6313 27.006 37.6501 26.9892 37.6735 26.9806C37.6969 26.972 37.7229 26.9723 37.7461 26.9815C37.7654 26.9895 37.7812 27.0035 37.7907 27.0211L37.793 27.0232L38.6953 28.6373L39.4815 27.0211C39.4874 27.0085 39.4959 26.9972 39.5066 26.9878C39.5172 26.9783 39.5298 26.9709 39.5435 26.9661C39.5572 26.9612 39.5719 26.959 39.5865 26.9595C39.6012 26.96 39.6156 26.9632 39.6289 26.969C39.6538 26.9803 39.6736 26.9995 39.6848 27.0232L40.3995 28.583L41.0763 27.0294H41.0785C41.0877 27.0076 41.1058 26.9901 41.1288 26.9807C41.1519 26.9713 41.1779 26.9708 41.2013 26.9794C41.2227 26.9882 41.24 27.0037 41.2505 27.0232L42.1238 28.6748L42.805 27.0482H42.8073C42.8092 27.0429 42.8122 27.038 42.8162 27.0338C42.8202 27.0296 42.8251 27.0263 42.8305 27.0239C42.8359 27.0216 42.8418 27.0203 42.8478 27.0202C42.8538 27.0201 42.8598 27.0211 42.8653 27.0232C42.8749 27.0279 42.8826 27.0351 42.8877 27.044L43.8436 28.7895C43.8436 28.7895 45.1301 28.264 44.4869 25.186ZM36.0151 21.4323C35.9497 21.8331 35.9242 22.2387 35.9391 22.6439C35.9413 22.8462 35.9681 23.0443 35.9838 23.2487C36.0061 23.4593 36.0262 23.672 36.0329 23.8868C36.0531 24.3231 36.0065 24.7599 35.8945 25.1839C35.8312 25.4054 35.7302 25.6159 35.5952 25.8074C35.5581 25.857 35.5179 25.9043 35.4745 25.9492L35.3629 26.0618C35.2909 26.1342 35.223 26.2101 35.1596 26.2891C35.0311 26.4451 34.9238 26.6153 34.8402 26.7959C34.7528 26.9792 34.684 27.1698 34.6347 27.3652C34.5659 27.5564 34.5518 27.7611 34.5937 27.9589C34.6356 28.1568 34.7322 28.341 34.8737 28.4934C34.6796 28.3724 34.5373 28.1916 34.4717 27.9825C34.4082 27.771 34.39 27.5499 34.4181 27.3318C34.4455 27.1173 34.4948 26.9057 34.5655 26.7C34.6395 26.4893 34.7431 26.2887 34.8737 26.1035C34.9363 26.0118 35.0055 25.9221 35.077 25.8366L35.1864 25.7136C35.2155 25.6802 35.2423 25.6427 35.2691 25.6051C35.3705 25.4432 35.4437 25.2672 35.4857 25.0838C35.5753 24.6949 35.6098 24.2966 35.5885 23.8993C35.584 23.697 35.5684 23.4927 35.5505 23.2904C35.5393 23.0798 35.5081 22.8629 35.517 22.6481C35.5186 22.2186 35.571 21.7906 35.6733 21.3718C35.8623 20.5385 36.2655 19.7605 36.8482 19.105C36.4237 19.828 36.1415 20.6163 36.0151 21.4323ZM40.0913 17.1719C39.8411 17.249 39.5977 17.3366 39.3587 17.4305C38.874 17.614 38.4116 17.8329 37.8935 18.054C38.0353 17.8207 38.225 17.6159 38.4518 17.4513C38.6751 17.2841 38.9225 17.1472 39.1867 17.0446C39.451 16.9397 39.7314 16.8742 40.0176 16.8507C40.3039 16.8218 40.5935 16.8481 40.8685 16.9279C40.5961 17.0238 40.3392 17.0843 40.0913 17.1719Z" fill="#F0B73F"/>
<path d="M49.4299 67C49.0393 68.0219 48.6285 69.0355 48.2229 70.0513L47.9126 70.8121C47.8056 71.0701 47.6795 71.3203 47.5354 71.5609C47.2329 71.9932 47.0491 72.4929 47.0014 73.013C46.9871 73.256 47.0443 73.498 47.1664 73.7109C47.3076 73.9217 47.4875 74.1056 47.6972 74.2537C48.1369 74.5787 48.598 74.8757 49.0775 75.1427C50.0405 75.6858 51.042 76.1803 52.0492 76.6461L51.8193 76.6986C52.233 76.1991 52.6529 75.7043 53.0732 75.2099L53.1145 75.4556C52.5753 75.0671 52.1625 74.5372 51.9247 73.9286C51.8049 73.6306 51.7285 73.318 51.6978 72.9996C51.6622 72.6783 51.6928 72.3534 51.7879 72.0436C51.8841 71.7417 52.0237 71.4543 52.2026 71.19L52.6884 70.3978C53.0119 69.8695 53.3352 69.3411 53.667 68.8172C53.3841 69.3673 53.0926 69.9128 52.8013 70.4584L52.3651 71.2771C52.2935 71.4154 52.2148 71.5477 52.1559 71.6824C52.0952 71.8178 52.0463 71.9578 52.0098 72.1011C51.936 72.385 51.9211 72.6803 51.966 72.9698C52.0034 73.2627 52.0828 73.5491 52.202 73.8207C52.3195 74.0913 52.4745 74.3453 52.6625 74.5756C52.8445 74.8043 53.0602 75.0058 53.3027 75.1738L53.3049 75.1753C53.3239 75.1879 53.3401 75.204 53.3526 75.2228C53.3652 75.2415 53.3738 75.2624 53.378 75.2844C53.3822 75.3063 53.3819 75.3288 53.3771 75.3507C53.3723 75.3725 53.3631 75.3932 53.35 75.4116L53.344 75.4196C52.9379 75.925 52.5313 76.4301 52.1186 76.9304C52.0919 76.9627 52.0547 76.9855 52.013 76.995C51.9713 77.0046 51.9275 77.0003 51.8886 76.9829C50.8606 76.5252 49.8573 76.0171 48.8826 75.4606C48.3875 75.1836 47.9146 74.8708 47.4679 74.5251C47.3544 74.4343 47.2461 74.3377 47.1433 74.2356C47.0332 74.1282 46.939 74.0064 46.8635 73.8739C46.7152 73.6055 46.6486 73.3018 46.6714 72.9982C46.7374 72.4297 46.9528 71.887 47.2969 71.4218C47.5763 70.9563 47.821 70.472 48.0291 69.9727C48.4928 68.9805 48.9512 67.9861 49.4299 67Z" fill="#020202"/>
<path d="M44.667 75.6507L45.5956 74C45.5956 74 51.167 76.7761 51.3813 77.6765C51.3813 77.6765 52.4845 75.6642 51.9329 74.8641C51.9329 74.8641 58.0241 77.9766 58.667 80.3775C58.667 80.3775 58.667 83.5288 44.667 75.6507Z" fill="#F0B73F"/>
<path d="M53.7427 36.8473L53.7734 37.0679C53.7771 37.1408 53.7935 37.2125 53.8218 37.2797C53.8779 37.4122 53.981 37.5187 54.1108 37.5782C54.1739 37.6067 54.2417 37.623 54.3107 37.6261C54.3754 37.6281 54.4658 37.6219 54.5421 37.6202L55.0197 37.6036C55.6565 37.5792 56.2933 37.561 56.9302 37.5489C58.2038 37.5244 59.4774 37.4838 60.7511 37.4726C63.2984 37.4402 65.8456 37.4192 68.3929 37.4596L68.8602 37.4691C68.9354 37.4685 69.0089 37.4463 69.0721 37.4052C69.1353 37.3641 69.1856 37.3056 69.2172 37.2367C69.241 37.1811 69.2559 37.1219 69.2614 37.0615L69.3396 36.5855L69.653 34.6813L69.9671 32.7773L70.2603 30.8702C70.6416 28.3261 70.9605 25.773 71.2664 23.218C71.2919 23.0761 71.3029 22.9318 71.2991 22.7876C71.2817 22.6744 71.2217 22.5724 71.1315 22.5029C71.0453 22.4352 70.9369 22.403 70.8282 22.4127C70.7194 22.4224 70.6183 22.4732 70.545 22.5551C70.5103 22.5949 70.4834 22.6409 70.4655 22.6908C70.447 22.75 70.4361 22.8114 70.4331 22.8735L70.3781 23.3528L70.2634 24.3108C70.1114 25.5883 69.9583 26.8656 69.7945 28.1414C69.4736 30.694 69.1566 33.2472 68.8052 35.7956L68.7715 36.0344C68.7648 36.0878 68.7548 36.1407 68.7415 36.1928C68.7262 36.2519 68.705 36.3093 68.6784 36.3641C68.5723 36.5858 68.387 36.7585 68.1598 36.8477C68.0495 36.8901 67.9327 36.9122 67.8148 36.9131L67.5759 36.9166L67.0982 36.9236C66.4612 36.9336 65.8243 36.9429 65.1872 36.9452L61.3652 36.9704C60.0913 36.9792 58.8171 36.9668 57.5433 36.966C57.2265 36.9631 56.9025 36.9688 56.5918 36.9581L55.6595 36.9223L53.7427 36.8473ZM53.6988 36.8029L55.603 36.7279L56.5811 36.6921L57.5397 36.6486C58.8126 36.5931 60.0851 36.5259 61.3579 36.4801L65.176 36.3412C65.8123 36.3161 66.4487 36.2981 67.0851 36.2807L67.5624 36.2672L67.801 36.2605C67.8427 36.2604 67.884 36.2524 67.9227 36.2369C67.9952 36.2068 68.0537 36.1501 68.0866 36.0783C68.0949 36.0609 68.1013 36.0426 68.1056 36.0237C68.1115 35.9977 68.1158 35.9714 68.1183 35.9449L68.1488 35.7057C68.4821 33.1548 68.8497 30.6086 69.2135 28.0619C69.3921 26.788 69.5813 25.5157 69.7717 24.2434L69.9137 23.2892L69.9871 22.8124C69.9982 22.7142 70.0219 22.6178 70.0574 22.5257C70.0988 22.4258 70.1585 22.3348 70.2333 22.2572C70.3828 22.1024 70.585 22.0108 70.799 22.001C71.0103 21.9908 71.2174 22.0624 71.3782 22.2012C71.5377 22.3375 71.6394 22.5303 71.6625 22.74C71.6718 22.8366 71.6667 22.9341 71.6474 23.0292L71.6085 23.2673C71.1957 25.8068 70.7959 28.3483 70.4585 30.8987L70.2127 32.8126L69.9878 34.7295L69.7622 36.6463L69.7056 37.1255C69.6978 37.2256 69.6758 37.3242 69.6402 37.418C69.5995 37.5202 69.5398 37.6137 69.4644 37.6934C69.311 37.8554 69.1024 37.9528 68.8808 37.9658L68.3929 37.9778C65.8457 38.0182 63.2984 37.9972 60.7511 37.9648C59.4774 37.9536 58.2038 37.913 56.9302 37.8885C56.2933 37.8771 55.6565 37.8589 55.0197 37.8338L54.5421 37.8172C54.4592 37.8131 54.3902 37.8147 54.296 37.8059C54.206 37.7955 54.1187 37.768 54.0388 37.725C53.9207 37.6626 53.8229 37.5672 53.7571 37.4501C53.6914 37.333 53.6605 37.1992 53.6681 37.0648C53.6754 36.9719 53.6887 36.8827 53.6988 36.8029Z" fill="#020202"/>
<path d="M50.1725 9.49866C50.1725 9.49866 46.5059 9.60852 45.5987 9.13246C45.5987 9.13246 45.9011 7.85077 44.9183 7.96063C43.9356 8.0705 44.3072 9.93809 44.8018 9.93809C44.8018 9.93809 43.3686 11.3296 42.1212 10.9268C42.1212 10.9268 40.1541 5.72684 44.4073 4.37191C48.6605 3.01699 49.6055 5.80008 49.6055 5.80008C49.6055 5.80008 53.839 7.81416 50.1725 9.49866Z" fill="#020202"/>
<path d="M42.3851 10.3427C42.4775 10.0992 42.6265 9.89079 42.8152 9.74125C43.0023 9.59232 43.2082 9.47879 43.4256 9.40484C43.6421 9.3301 43.8635 9.27653 44.0877 9.24467C44.313 9.21174 44.5401 9.19888 44.7671 9.20623C44.7889 9.20704 44.8095 9.21786 44.8245 9.23634C44.8395 9.25482 44.8477 9.27947 44.8472 9.30492C44.8467 9.33037 44.8377 9.35458 44.822 9.37228C44.8063 9.38999 44.7853 9.39976 44.7635 9.39947L44.76 9.39942C44.7088 9.39597 44.6587 9.37979 44.6132 9.35196C44.5677 9.32412 44.5278 9.28528 44.4961 9.238C44.44 9.16137 44.3934 9.07598 44.3575 8.9843C44.2878 8.80922 44.2397 8.62352 44.2145 8.43271C44.1865 8.2396 44.1833 8.04267 44.2052 7.84847C44.2248 7.63381 44.2997 7.43115 44.42 7.26726C44.4886 7.18047 44.5725 7.11219 44.666 7.06717C44.7561 7.02708 44.8512 7.0047 44.9476 7.00095C45.0475 6.99551 45.1474 7.01345 45.2413 7.05371C45.3432 7.09844 45.4328 7.17475 45.5005 7.27445C45.6136 7.45601 45.677 7.67327 45.6825 7.8977C45.6925 8.09864 45.6802 8.30024 45.646 8.4975L45.5515 8.25335C45.6722 8.31645 45.7998 8.35971 45.9306 8.38189C46.0714 8.41095 46.2177 8.42961 46.365 8.4439C46.6599 8.47392 46.9602 8.48797 47.2613 8.49467C47.8652 8.50723 48.4679 8.49898 49.0873 8.5213C49.1655 8.52536 49.2439 8.53042 49.3271 8.54109C49.3729 8.54648 49.4185 8.55529 49.4633 8.56749C49.5018 8.57761 49.5386 8.59514 49.5721 8.61935C49.5934 8.6359 49.6122 8.65651 49.6277 8.68033C49.6519 8.71853 49.6656 8.76445 49.6669 8.81197C49.6682 8.85949 49.6571 8.90635 49.635 8.9463L49.6267 8.96156C49.5603 9.10283 49.5051 9.2509 49.4617 9.4039C49.3614 9.72185 49.2899 10.0512 49.2484 10.3866C49.2415 10.4453 49.242 10.5049 49.2498 10.5634L49.3374 10.8066L49.4261 11.0519L49.4711 11.1771C49.5021 11.2654 49.5134 11.3616 49.5037 11.4564C49.4941 11.5512 49.4639 11.6415 49.416 11.7189C49.3533 11.8188 49.2637 11.8914 49.1616 11.9251L48.7251 12.0795L48.7991 11.9998C48.6341 12.407 48.4405 12.7973 48.2201 13.1669C48.1094 13.3531 47.9857 13.5284 47.8503 13.6908C47.7133 13.8612 47.5485 13.9977 47.3656 14.0924C47.1753 14.1685 46.9716 14.1874 46.7733 14.1476C46.582 14.1153 46.3938 14.0616 46.2113 13.9873C45.8494 13.8414 45.499 13.6594 45.1639 13.4432L45.2438 13.4254C44.7022 14.254 44.1827 15.1028 43.6498 15.9393C43.6337 15.9646 43.6113 15.9833 43.5856 15.9929C43.56 16.0024 43.5324 16.0024 43.5068 15.9927L43.5056 15.9922C43.1447 15.8397 42.7986 15.6428 42.4732 15.4049C42.1482 15.1854 41.8359 14.9453 41.5236 14.7064C40.9041 14.2192 40.3013 13.7062 39.7152 13.1674L39.7087 13.1614C39.6974 13.151 39.688 13.1382 39.681 13.1236C39.6739 13.109 39.6695 13.0929 39.6678 13.0762C39.6661 13.0596 39.6672 13.0427 39.6711 13.0266C39.6749 13.0105 39.6815 12.9954 39.6904 12.9823C39.6975 12.9717 39.7061 12.9625 39.7156 12.955C40.2011 12.5768 40.68 12.1808 41.1455 11.7666C41.379 11.5603 41.6026 11.3393 41.8203 11.1114C42.0427 10.8923 42.2334 10.6327 42.3851 10.3427ZM42.419 10.36C42.2677 10.6575 42.0771 10.9253 41.8542 11.1534C41.6455 11.3958 41.4231 11.6204 41.2045 11.8502C40.7638 12.3058 40.3101 12.7417 39.846 13.1677L39.8465 12.9554L41.7069 14.3833C42.0147 14.6238 42.3272 14.8556 42.6383 15.0864C42.7941 15.2011 42.9521 15.3111 43.1098 15.4182C43.2611 15.5252 43.4197 15.6176 43.584 15.6945L43.4399 15.7473C44.0071 14.9422 44.5878 14.1494 45.1464 13.3364C45.1558 13.3228 45.1689 13.3135 45.1836 13.3103C45.1982 13.307 45.2134 13.31 45.2263 13.3186C45.5495 13.5399 45.8917 13.7212 46.2472 13.8594C46.4233 13.9272 46.6046 13.975 46.7885 14.0023C46.9654 14.035 47.1465 14.0155 47.3153 13.9457C47.4776 13.8558 47.6212 13.7256 47.736 13.5641C47.8583 13.4025 47.9689 13.2293 48.0668 13.0464C48.2644 12.6782 48.434 12.2905 48.5737 11.8878C48.5799 11.87 48.5893 11.8539 48.6011 11.8405C48.613 11.8272 48.6271 11.8169 48.6426 11.8102L48.6477 11.8081L49.0762 11.6257C49.1202 11.6107 49.1583 11.5784 49.1842 11.5343C49.2101 11.4902 49.2222 11.4369 49.2183 11.3836C49.2162 11.3585 49.2106 11.334 49.2015 11.3112L49.1545 11.1927L49.0583 10.9513L48.9613 10.7075C48.94 10.6458 48.9282 10.5802 48.9265 10.5137C48.924 10.4618 48.9243 10.4097 48.9274 10.3577C48.9599 9.98776 49.0296 9.62354 49.135 9.27261C49.1837 9.08705 49.2484 8.90772 49.328 8.7374C49.3298 8.7338 49.339 8.71768 49.3347 8.72442C49.3199 8.75107 49.3119 8.78206 49.3115 8.81383C49.3105 8.85505 49.3213 8.89547 49.3422 8.92866C49.3514 8.94416 49.3632 8.95732 49.3769 8.96735C49.3985 8.98253 49.3877 8.97416 49.3792 8.97321C49.3498 8.96653 49.3202 8.96182 49.2903 8.95912C49.2223 8.95202 49.1488 8.94879 49.0751 8.94684C48.479 8.93582 47.8658 8.97173 47.2541 8.95452C46.9475 8.94796 46.6398 8.93661 46.3292 8.90331C46.1739 8.88502 46.018 8.86232 45.8599 8.82648C45.69 8.79361 45.5252 8.73179 45.3708 8.64298C45.3348 8.62101 45.306 8.58591 45.2887 8.54302C45.2714 8.50014 45.2665 8.45182 45.2749 8.40543L45.2762 8.39877C45.3306 8.09984 45.3353 7.71777 45.2195 7.53038C45.188 7.4841 45.1471 7.44766 45.1006 7.42431C45.0541 7.40097 45.0034 7.39144 44.9529 7.39658C44.8971 7.39092 44.8409 7.39879 44.7878 7.41972C44.7347 7.44064 44.6858 7.47416 44.6444 7.51817C44.5637 7.64259 44.5052 7.78463 44.4723 7.9359C44.4395 8.08717 44.4329 8.2446 44.453 8.3989C44.4631 8.56678 44.4933 8.73218 44.5428 8.89023C44.5875 9.04086 44.6795 9.19918 44.76 9.20586L44.753 9.39905C44.5353 9.37338 44.3162 9.36694 44.0977 9.37979C43.8777 9.38927 43.6591 9.42536 43.4454 9.48748C43.2312 9.54627 43.0273 9.64781 42.8426 9.78763C42.6584 9.92833 42.5116 10.1266 42.419 10.36Z" fill="#020202"/>
<path d="M45.2079 10L45.1145 10.7807C45.0869 11.0344 45.08 11.2889 45.0939 11.5431C45.1057 11.7934 45.1527 12.0425 45.2344 12.2874C45.331 12.5358 45.4763 12.7752 45.667 13C45.3326 12.8306 45.0742 12.6071 44.9185 12.3524C44.7675 12.0966 44.6833 11.8265 44.6694 11.553C44.6564 11.2837 44.696 11.0143 44.7872 10.7513C44.8699 10.489 45.0117 10.2359 45.2079 10Z" fill="#020202"/>
<path d="M42.1362 7C42.1362 7 39.1133 5.19871 41.7396 3.62085C44.366 2.043 44.667 3.97041 44.667 3.97041" fill="#020202"/>
<path d="M33.5107 19.2603C32.6409 19.169 31.7636 19.173 30.8946 19.272C30.0339 19.3619 29.1897 19.5685 28.3859 19.8861L28.0894 20.0086L27.8045 20.1542C27.7109 20.2046 27.6121 20.2461 27.5228 20.3037L27.2538 20.4736C26.8989 20.6929 26.5785 20.9627 26.3029 21.2742C25.7555 21.8992 25.3996 22.6656 25.2768 23.4836C25.2142 23.8896 25.2088 24.3022 25.2606 24.7096C25.3142 25.1041 25.4255 25.5444 25.5061 25.9684C25.6793 26.8226 25.8522 27.677 26.013 28.5337C26.34 30.2483 26.6242 31.964 26.968 33.6707C27.6381 37.0902 28.4533 40.4801 29.3257 43.8552C30.2027 47.2294 31.0578 50.6086 31.8909 53.9927L31.6362 53.7564C32.5524 53.9005 33.4753 54.0336 34.3967 54.161C35.318 54.2918 36.2398 54.4202 37.1627 54.5391C39.0072 54.7878 40.8545 55.0092 42.7046 55.2034C44.5545 55.3959 46.4092 55.5364 48.2645 55.5984C49.1907 55.63 50.118 55.6121 51.0422 55.5446C51.5024 55.5126 51.9593 55.445 52.4088 55.3425C52.6315 55.2899 52.8492 55.2183 53.0594 55.1287C53.2705 55.0446 53.459 54.9131 53.61 54.7446C53.6126 54.7413 53.6158 54.7386 53.6195 54.7365C53.6232 54.7345 53.6272 54.7331 53.6314 54.7326C53.6356 54.7321 53.6398 54.7324 53.6439 54.7335C53.6479 54.7346 53.6517 54.7365 53.655 54.7391C53.6613 54.7443 53.6654 54.7515 53.6666 54.7595C53.6678 54.7675 53.666 54.7757 53.6615 54.7824C53.5165 54.9732 53.3287 55.1281 53.1129 55.2347C52.9021 55.3438 52.6815 55.4331 52.454 55.5015C52.0017 55.6356 51.5395 55.7345 51.0716 55.7972C50.1402 55.919 49.2022 55.984 48.2628 55.9917C46.3871 56.0317 44.5165 55.9209 42.6515 55.7859C40.7857 55.651 38.9273 55.4443 37.0733 55.2123C36.147 55.09 35.2215 54.9632 34.2977 54.8247C33.374 54.6819 32.4534 54.5341 31.53 54.3738L31.5265 54.3732C31.4658 54.3626 31.4097 54.3346 31.365 54.2927C31.3203 54.2507 31.2891 54.1968 31.2752 54.1374C30.4829 50.7426 29.7268 47.3397 29.0067 43.9287C28.2846 40.5179 27.5028 37.1207 26.6612 33.7372C26.4529 32.891 26.2496 32.0403 26.058 31.1889C25.8668 30.3389 25.6651 29.491 25.4825 28.6395C25.2942 27.789 25.1181 26.9362 24.9424 26.0833C24.8571 25.6524 24.7616 25.2443 24.6996 24.7753C24.6467 24.3167 24.6582 23.8531 24.7339 23.3976C24.885 22.4827 25.3028 21.6315 25.9361 20.9483C26.2486 20.61 26.6137 20.3231 27.0175 20.0987L27.3129 19.9298C27.4108 19.8728 27.5174 19.8326 27.6191 19.7834L27.9275 19.6426L28.2453 19.5265C29.0901 19.2256 29.9762 19.0535 30.8733 19.0159C31.7605 18.9678 32.6504 19.0289 33.5224 19.1979C33.5304 19.1996 33.5375 19.2042 33.5422 19.2109C33.5469 19.2176 33.5488 19.2258 33.5475 19.2338C33.5462 19.2419 33.5419 19.2491 33.5354 19.2541C33.5289 19.259 33.5207 19.2613 33.5125 19.2605L33.5107 19.2603Z" fill="#020202"/>
<path d="M33.406 48.9777C32.9392 47.5219 32.5222 46.0543 32.1361 44.5795C31.7503 43.1047 31.3808 41.6259 31.0703 40.1338L30.6385 37.8879C30.4991 37.1383 30.3586 36.389 30.1993 35.6439C29.886 34.1525 29.5085 32.6758 29.1524 31.1901C28.7853 29.7101 28.4341 28.2275 28.1095 26.7397L27.8638 25.6243C27.7665 25.2376 27.7028 24.8434 27.6736 24.446C27.6307 23.6268 27.7967 22.8101 28.1564 22.0703C28.5233 21.3324 29.0797 20.7019 29.7703 20.2413C30.4458 19.8086 31.189 19.4883 31.9701 19.2934C33.5022 18.9217 35.1008 18.9029 36.6415 19.2385C36.6495 19.2402 36.6565 19.2448 36.6612 19.2514C36.6659 19.2581 36.6678 19.2662 36.6667 19.2742C36.6655 19.2822 36.6612 19.2894 36.6548 19.2944C36.6484 19.2995 36.6403 19.3019 36.6321 19.3012L36.6297 19.3011C35.1073 19.1665 33.5729 19.3271 32.1133 19.7739C31.4058 19.998 30.7366 20.3259 30.1285 20.7467C29.5474 21.1652 29.0827 21.7211 28.7775 22.3632C28.4724 23.0058 28.3246 23.7098 28.3459 24.4188C28.3627 24.7816 28.4111 25.1422 28.4907 25.4967L28.7045 26.6197C28.9924 28.1164 29.2537 29.6183 29.4992 31.1228C29.7438 32.6239 30.0452 34.1159 30.4035 35.5987L30.686 36.7063L30.989 37.8092L31.594 40.015C31.9776 41.4899 32.3072 42.9771 32.6234 44.4676C32.9394 45.9581 33.2278 47.4551 33.4688 48.9632C33.4701 48.9711 33.4683 48.9792 33.4637 48.9859C33.4592 48.9926 33.4522 48.9973 33.4443 48.9992C33.4363 49.001 33.4279 48.9998 33.4208 48.9958C33.4137 48.9919 33.4084 48.9854 33.406 48.9777Z" fill="#020202"/>
<path d="M30.667 45C31.1136 45.6222 31.547 46.2369 31.988 46.8387C32.4291 47.4398 32.8833 48.0187 33.3548 48.5682C33.8207 49.1177 34.3265 49.6148 34.866 50.0536C35.4111 50.4988 36.0231 50.8087 36.667 50.9656C35.9734 51.0753 35.2688 50.9211 34.6501 50.5245C34.0297 50.1477 33.4608 49.6567 32.9636 49.0688C32.4708 48.4924 32.0277 47.8565 31.641 47.1708C31.2479 46.4958 30.921 45.7673 30.667 45Z" fill="#020202"/>
<path d="M32.0155 54.0412C31.3392 56.1152 30.638 58.1791 29.9119 60.2327L28.8231 63.3134C28.4619 64.3407 28.0913 65.3646 27.7112 66.3851C26.9488 68.4252 26.1594 70.4576 25.4713 72.5239C25.1342 73.5589 24.8149 74.6001 24.5398 75.6518C24.4055 76.1781 24.2712 76.7051 24.1737 77.2372C24.0554 77.7543 23.9976 78.2832 24.0014 78.8135L23.6825 78.7548C24.5789 76.7204 25.4774 74.6866 26.3958 72.6626L29.1411 66.5866L31.9334 60.5337C32.393 59.5228 32.8705 58.5186 33.3138 57.5011C33.7686 56.4873 34.2131 55.4716 34.6051 54.4326L34.6057 54.4309C34.6086 54.4233 34.6143 54.4171 34.6216 54.4136C34.6289 54.4101 34.6374 54.4096 34.6451 54.4121C34.6529 54.4146 34.6594 54.4199 34.6632 54.4271C34.6671 54.4342 34.668 54.4425 34.6658 54.4503C34.5155 54.9856 34.3631 55.5244 34.1747 56.0478L33.9045 56.8389L33.6125 57.6211C33.4188 58.1433 33.2191 58.6628 33.0133 59.1798C32.8103 59.6979 32.6097 60.2174 32.3941 60.7301C31.5573 62.7926 30.6625 64.8296 29.7591 66.8624C28.8468 68.8914 27.8887 70.8992 26.9336 72.9081C25.9793 74.9174 24.9915 76.9109 23.9859 78.8963L23.979 78.91C23.9624 78.9427 23.9351 78.969 23.9016 78.9846C23.8681 79.0001 23.8303 79.0041 23.7943 78.9957C23.7582 78.9874 23.7261 78.9673 23.703 78.9386C23.6799 78.9099 23.6672 78.8744 23.667 78.8377C23.6841 78.2783 23.7682 77.7229 23.9177 77.1833C24.0453 76.6498 24.1882 76.1229 24.3376 75.5977C24.6362 74.5478 24.9536 73.5047 25.2728 72.4621C25.9041 70.3749 26.5281 68.2839 27.2098 66.2117C27.9027 64.1435 28.6639 62.0993 29.4527 60.066C30.2424 58.033 31.0691 56.014 31.9564 54.0188C31.9597 54.0114 31.9657 54.0055 31.9732 54.0024C31.9807 53.9993 31.9891 53.9992 31.9967 54.0021C32.0043 54.005 32.0105 54.0106 32.014 54.0179C32.0175 54.0252 32.0181 54.0335 32.0155 54.0412Z" fill="#020202"/>
<path d="M37.587 55.031C37.6045 56.3444 37.5646 57.6528 37.5166 58.9604C37.4914 59.6141 37.4608 60.2673 37.425 60.9201C37.3937 61.5732 37.3508 62.2255 37.2964 62.877C37.1904 64.1801 37.0256 65.4803 36.9492 66.7858C36.9111 67.4384 36.889 68.0919 36.8869 68.7449C36.8899 69.0713 36.8894 69.3977 36.9083 69.7222C36.9172 69.8842 36.928 70.046 36.9444 70.2046C36.9527 70.2837 36.9624 70.3626 36.9759 70.4364C36.9818 70.4708 36.9896 70.5049 36.9993 70.5383C37.0022 70.549 37.0062 70.5594 37.0113 70.5692C37.0131 70.5731 37.0125 70.5691 37.0073 70.5623C36.9981 70.5504 36.9868 70.5406 36.9739 70.5334C36.961 70.5262 36.9469 70.5218 36.9323 70.5205L37.0559 70.6205C37.0608 70.6284 37.0799 70.6571 37.0888 70.66C37.1003 70.6664 37.0967 70.6636 37.095 70.6598C37.1246 70.6385 37.1516 70.6136 37.1755 70.5856C37.2634 70.4659 37.3369 70.3355 37.3946 70.1973C37.5194 69.8952 37.6265 69.5856 37.7153 69.27C37.9001 68.6326 38.0608 67.9818 38.2096 67.3276C38.5032 66.0172 38.7517 64.6922 39.0036 63.3674L39.7795 59.3919C40.0427 58.0661 40.3088 56.7397 40.6077 55.4175C40.6094 55.4098 40.6138 55.403 40.6201 55.3986C40.6264 55.3941 40.6341 55.3924 40.6415 55.3936C40.649 55.3948 40.6558 55.3989 40.6605 55.4051C40.6652 55.4113 40.6675 55.4191 40.6669 55.427C40.5635 56.7811 40.4241 58.1305 40.2487 59.4751C40.0776 60.8204 39.8724 62.1607 39.6333 63.496C39.3853 64.8295 39.0971 66.1562 38.7512 67.4718C38.5769 68.1293 38.3928 68.7856 38.1547 69.4293C38.0384 69.7567 37.8997 70.075 37.7397 70.3817C37.6539 70.5476 37.5476 70.701 37.4235 70.8381C37.3369 70.9361 37.2165 70.9943 37.0888 71C37.0091 70.9974 36.9332 70.9638 36.8761 70.9057C36.8291 70.8593 36.7926 70.8025 36.7694 70.7395L36.8929 70.8395C36.8443 70.8316 36.8004 70.8047 36.7701 70.7643C36.7564 70.7461 36.7451 70.726 36.7364 70.7047C36.725 70.6773 36.7161 70.6489 36.7099 70.6199C36.7 70.5741 36.6926 70.5278 36.6879 70.4812C36.6783 70.3932 36.6741 70.309 36.6711 70.225C36.6657 70.0573 36.6664 69.892 36.6689 69.727C36.6763 69.3973 36.6802 69.0694 36.6932 68.7416L36.7479 66.7771C36.7764 65.4679 36.7494 64.1549 36.7925 62.8456C36.8125 62.191 36.8476 61.5373 36.898 60.8846C36.9428 60.2316 36.9958 59.5792 37.0568 58.9275C37.1807 57.6243 37.32 56.3223 37.5273 55.0262C37.5286 55.0185 37.5326 55.0115 37.5385 55.0067C37.5444 55.0018 37.5518 54.9995 37.5593 55.0001C37.5668 55.0007 37.5738 55.0042 37.5789 55.0099C37.5841 55.0156 37.587 55.0231 37.587 55.031Z" fill="#020202"/>
<path d="M56.7159 69.0201C56.9946 69.8899 57.2228 70.776 57.441 71.6652C57.6554 72.5558 57.8624 73.4484 58.0226 74.3571C58.1795 75.2668 58.2974 76.1909 58.4921 77.0879C58.5867 77.5373 58.6938 77.9818 58.8134 78.4214C58.8707 78.6418 58.9392 78.8578 59.0057 79.0726C59.0395 79.1797 59.0741 79.2863 59.1105 79.3893C59.1285 79.4408 59.1472 79.492 59.1665 79.5383C59.1761 79.5627 59.1862 79.5824 59.1953 79.6015C59.1987 79.6065 59.2053 79.6178 59.2053 79.6178C59.2043 79.6143 59.2025 79.6113 59.2002 79.609C59.1981 79.6066 59.2023 79.612 59.1951 79.6034C59.1879 79.5952 59.1799 79.5882 59.1713 79.5827C59.1535 79.5713 59.1338 79.566 59.1139 79.5675C59.1093 79.5679 59.105 79.5706 59.1019 79.575C59.0988 79.5794 59.0972 79.5851 59.0974 79.591C59.0976 79.5969 59.0997 79.6024 59.103 79.6065C59.1064 79.6105 59.1109 79.6127 59.1156 79.6125L59.2071 79.6098C59.2105 79.6097 59.2341 79.6138 59.2221 79.6073C59.2119 79.6053 59.2062 79.6092 59.2153 79.5927C59.2393 79.5188 59.2533 79.4404 59.2566 79.3606C59.2683 79.1524 59.2663 78.9434 59.2507 78.7356C59.224 78.304 59.1725 77.8657 59.1139 77.4289C58.9906 76.5549 58.8372 75.6825 58.6914 74.8068C58.5499 73.9296 58.3986 73.053 58.2618 72.1705C58.1233 71.2885 57.9884 70.4036 57.8784 69.5086C57.8774 69.5008 57.8787 69.4928 57.8821 69.4861C57.8854 69.4794 57.8906 69.4746 57.8966 69.4725C57.9027 69.4704 57.9091 69.4712 57.9147 69.4747C57.9202 69.4782 57.9246 69.4842 57.9269 69.4916C58.192 70.3326 58.4304 71.1844 58.6421 72.0469C58.8569 72.9083 59.047 73.7792 59.2124 74.6596C59.3766 75.5438 59.5027 76.4387 59.59 77.3403C59.6373 77.7974 59.663 78.2576 59.667 78.7186C59.6676 78.9608 59.649 79.2024 59.6116 79.4398C59.5907 79.5837 59.5452 79.7201 59.4783 79.8393C59.4513 79.8839 59.4175 79.9211 59.3789 79.9485C59.3402 79.976 59.2975 79.9931 59.2534 79.9989C59.2093 80.0032 59.165 79.9948 59.1238 79.9743C59.0862 79.9564 59.0513 79.9305 59.0206 79.8977L59.1137 79.94C59.0757 79.937 59.0393 79.9194 59.0095 79.8894C59.0054 79.8855 59.0017 79.881 58.9985 79.876C58.9888 79.8625 58.9798 79.8484 58.9713 79.8337C58.9589 79.8099 58.954 79.7954 58.9454 79.7757C58.9337 79.743 58.9224 79.7111 58.9143 79.6818C58.896 79.622 58.8808 79.565 58.8663 79.5076C58.8373 79.3932 58.8114 79.28 58.7865 79.1666L58.6426 78.4882C58.5469 78.0373 58.4468 77.5892 58.3383 77.144C58.1275 76.2516 57.8539 75.3813 57.624 74.4949C57.3979 73.6074 57.2243 72.7018 57.0617 71.793C56.9031 70.8828 56.7575 69.9683 56.6672 69.0361C56.6664 69.0284 56.6679 69.0205 56.6714 69.0141C56.6748 69.0076 56.68 69.003 56.686 69.001C56.692 68.9991 56.6983 68.9999 56.7038 69.0034C56.7093 69.0069 56.7136 69.0129 56.7159 69.0201Z" fill="#020202"/>
<path d="M74.3854 41.0292C74.5163 44.176 74.5742 47.3229 74.6247 50.4697C74.6638 53.6166 74.6862 56.7634 74.645 59.9102L74.5473 64.6305C74.5107 66.2039 74.4766 67.7774 74.4649 69.3508C74.4508 70.9242 74.4633 72.4976 74.4746 74.071L74.4822 75.2511L74.4921 75.8411L74.4947 75.9886C74.4951 76.045 74.4902 76.1012 74.4802 76.1569C74.4588 76.2697 74.4133 76.3782 74.3459 76.477C74.2089 76.6774 73.9903 76.8278 73.7317 76.8997C73.6055 76.9326 73.4739 76.9482 73.3419 76.946L72.9961 76.9504L71.6127 76.9681L70.2292 76.9885L69.5375 76.9987L69.4502 76.9999C69.4146 77.0003 69.3789 76.9992 69.343 76.9968C69.2705 76.992 69.1986 76.9812 69.1285 76.9645C68.9901 76.9309 68.8596 76.8772 68.7426 76.8058C68.5039 76.6581 68.3383 76.4399 68.2782 76.1936C68.2636 76.1331 68.2551 76.0716 68.2527 76.0099L68.2465 75.8625L68.2344 75.5676L68.1929 74.388L68.0368 69.6695C67.9427 66.5236 67.8434 63.3778 67.7835 60.2313C67.68 53.9382 67.623 47.6443 67.7087 41.3482C67.7088 41.3403 67.7125 41.3328 67.719 41.3272C67.7255 41.3216 67.7343 41.3184 67.7435 41.3182C67.7527 41.3181 67.7617 41.321 67.7684 41.3264C67.7751 41.3318 67.7792 41.3392 67.7796 41.347C68.1435 47.636 68.3647 53.9272 68.5393 60.2192C68.6185 63.3654 68.6583 66.5121 68.7034 69.6588L68.7552 74.3791L68.7652 75.5593L68.766 75.8544L68.7662 76.0019C68.766 76.0385 68.7695 76.075 68.7765 76.1112C68.8055 76.2554 68.8966 76.3851 69.0318 76.4751C69.1011 76.5203 69.1788 76.5553 69.2617 76.5785C69.3023 76.5895 69.344 76.5971 69.3864 76.6012C69.408 76.6034 69.4299 76.6047 69.4519 76.6052L69.5375 76.6065L70.2292 76.6167L71.6127 76.6371L72.9961 76.6548L73.342 76.6592C73.4409 76.6646 73.5401 76.6561 73.6358 76.6341C73.7752 76.5991 73.9006 76.532 73.9983 76.4402C74.096 76.3485 74.1623 76.2356 74.1899 76.1139C74.1989 76.0725 74.204 76.0307 74.2053 75.9886L74.2079 75.8411L74.2177 75.2511L74.2254 74.071C74.2367 72.4976 74.2492 70.9242 74.2351 69.3508C74.2235 67.7774 74.1893 66.2039 74.1527 64.6305L74.055 59.9102C74.0138 56.7634 74.0362 53.6166 74.0754 50.4697C74.1258 47.3229 74.1837 44.176 74.3146 41.0292C74.3149 41.0213 74.3188 41.0139 74.3254 41.0085C74.332 41.003 74.3408 41 74.35 41C74.3592 41 74.368 41.003 74.3746 41.0085C74.3812 41.0139 74.3851 41.0213 74.3854 41.0292Z" fill="#020202"/>
<path d="M83.8337 37H58.5003C58.0401 37 57.667 37.457 57.667 38.0207V39.9793C57.667 40.543 58.0401 41 58.5003 41H83.8337C84.2939 41 84.667 40.543 84.667 39.9793V38.0207C84.667 37.457 84.2939 37 83.8337 37Z" fill="#020202"/>
<path d="M48.667 13.5003C48.6666 13.6242 48.6202 13.7436 48.5366 13.8354C48.453 13.9273 48.3382 13.9851 48.2143 13.9977C48.1464 14.0043 48.0778 13.9969 48.0128 13.9759C47.9479 13.955 47.8879 13.921 47.8367 13.876C47.7834 13.8289 47.7407 13.771 47.7114 13.7062C47.6822 13.6414 47.667 13.5712 47.667 13.5002C47.667 13.4292 47.6821 13.3589 47.7113 13.2941C47.7405 13.2293 47.7831 13.1714 47.8364 13.1242C47.8876 13.0791 47.9476 13.045 48.0126 13.0241C48.0776 13.0031 48.1463 12.9957 48.2143 13.0024C48.3382 13.0151 48.453 13.073 48.5366 13.1649C48.6202 13.2568 48.6666 13.3763 48.667 13.5003ZM48.667 13.5003C48.6666 13.4417 48.6538 13.3838 48.6293 13.3305C48.6048 13.2772 48.5693 13.2297 48.525 13.1911C48.4826 13.1548 48.4331 13.1277 48.3796 13.1115C48.3261 13.0954 48.2698 13.0905 48.2143 13.0972C48.1155 13.1094 48.0246 13.1572 47.9587 13.2314C47.8927 13.3057 47.8563 13.4014 47.8563 13.5005C47.8563 13.5996 47.8927 13.6953 47.9587 13.7696C48.0246 13.8439 48.1155 13.8916 48.2143 13.9038C48.2699 13.9105 48.3262 13.9055 48.3797 13.8893C48.4332 13.8731 48.4827 13.8459 48.5251 13.8095C48.5693 13.7709 48.6048 13.7233 48.6293 13.67C48.6538 13.6167 48.6666 13.5589 48.667 13.5003Z" fill="#020202"/>
<path d="M49.167 11C49.3012 10.9955 49.4283 10.9409 49.5216 10.8476C49.6149 10.7543 49.667 10.6297 49.667 10.5C49.667 10.3703 49.6149 10.2457 49.5216 10.1524C49.4283 10.0591 49.3012 10.0045 49.167 10C49.0328 10.0045 48.9057 10.0591 48.8124 10.1524C48.7191 10.2457 48.667 10.3703 48.667 10.5C48.667 10.6297 48.7191 10.7543 48.8124 10.8476C48.9057 10.9409 49.0328 10.9955 49.167 11Z" fill="#020202"/>
<path d="M36.4796 34.0728L34.027 34.1037L34.0747 34.0679C33.6723 35.5057 33.3684 36.971 33.1653 38.453C32.9445 39.9284 32.8708 41.4233 32.9453 42.9143C32.9823 43.6551 33.0883 44.3905 33.2618 45.1103C33.4282 45.8253 33.6919 46.5122 34.045 47.1506C34.3965 47.7837 34.88 48.328 35.4605 48.7439C36.0459 49.1503 36.7003 49.4387 37.3893 49.5941L37.4042 49.5983L37.4094 49.5999C38.1253 49.8237 38.8542 50.0005 39.5917 50.1293C40.3318 50.2661 41.0776 50.3736 41.826 50.4598C43.324 50.6362 44.8297 50.7338 46.3373 50.7521C46.7142 50.7646 47.0914 50.7633 47.4686 50.7584L48.6002 50.7489L49.7317 50.7129L50.2975 50.6939L50.8627 50.6592L51.9933 50.5898C52.3702 50.5662 52.7467 50.5243 53.1235 50.4924L54.2538 50.3909L55.3898 50.3266L55.3916 50.3265C55.4061 50.3257 55.4207 50.3278 55.4344 50.3328C55.4481 50.3378 55.4607 50.3455 55.4715 50.3555C55.4824 50.3655 55.4912 50.3777 55.4975 50.3912C55.5038 50.4048 55.5074 50.4194 55.5082 50.4344C55.5091 50.4524 55.5059 50.4703 55.499 50.4868C54.9529 51.7674 54.4002 53.0444 53.8407 54.3179C53.2873 55.5944 52.7267 56.8676 52.1589 58.1375C51.5886 59.4062 51.0087 60.6705 50.4193 61.9303C50.1215 62.5587 49.8184 63.1847 49.4986 63.8026C49.3383 64.1114 49.1744 64.4184 48.9988 64.7198C48.9103 64.8701 48.8193 65.0192 48.72 65.1646C48.6698 65.2383 48.616 65.3094 48.5587 65.3775C48.5287 65.4135 48.4959 65.447 48.4607 65.4777C48.4172 65.5198 48.362 65.5465 48.3029 65.554L48.3364 65.4095C49.4041 65.9596 50.4922 66.4714 51.5857 66.9659C52.6804 67.4582 53.7856 67.9253 54.9045 68.3512C56.0176 68.7866 57.1562 69.1489 58.3135 69.4359C58.8857 69.5783 59.4698 69.6636 60.0578 69.6906C60.3421 69.7041 60.6268 69.6749 60.903 69.604C61.029 69.5777 61.1484 69.5247 61.2536 69.4483C61.3588 69.372 61.4475 69.2739 61.5142 69.1604L61.5009 69.1957L61.9987 67.1628C62.0079 67.1251 62.029 67.0918 62.0587 67.068C62.0883 67.0442 62.1248 67.0313 62.1624 67.0313L62.1654 67.0314C63.0655 67.0343 63.9706 67.0084 64.868 66.9503C65.3164 66.9192 65.7647 66.8796 66.2039 66.8108C66.4207 66.7789 66.6355 66.7341 66.8474 66.6767C66.9464 66.6496 67.0431 66.6142 67.1366 66.5707C67.1987 66.548 67.254 66.5087 67.2967 66.4568L67.2877 66.573L65.999 60.6749L64.7211 54.7743C64.7127 54.7359 64.7146 54.6959 64.7265 54.6586L64.7277 54.6549C65.1649 53.3003 65.5113 51.9162 65.7646 50.5125C65.8914 49.8129 65.9812 49.1067 66.0338 48.397C66.0922 47.6941 66.0815 46.9868 66.0019 46.2861C65.9596 45.9425 65.8874 45.6036 65.7862 45.2734C65.6848 44.9524 65.536 44.6495 65.345 44.3755C65.1464 44.1118 64.8956 43.8948 64.6093 43.7392C64.4647 43.65 64.3146 43.5708 64.1598 43.5021L63.9295 43.3898L63.69 43.2922C62.3946 42.788 61.0695 42.3695 59.7227 42.039C57.0259 41.3497 54.2967 40.7804 51.5611 40.255L50.5344 40.0616C50.3632 40.0295 50.1926 40.0002 50.0189 39.9577L49.7597 39.8983L49.5059 39.8177C48.4948 39.4858 47.5988 38.8574 46.9269 38.009C46.255 37.1606 45.8361 36.1287 45.7212 35.0389C45.7618 35.0364 45.7333 35.0429 45.7427 35.0445L45.7441 35.0528L45.747 35.0694L45.7527 35.1024L45.7641 35.1686L45.787 35.3008C45.7999 35.3893 45.8171 35.4771 45.8385 35.5638C45.8781 35.7379 45.9263 35.9098 45.9828 36.0789L46.0691 36.3317C46.1006 36.4148 46.1385 36.4953 46.1729 36.5772C46.242 36.7408 46.3201 36.9001 46.4068 37.0545C46.7479 37.6754 47.2026 38.2219 47.7455 38.6635C48.2824 39.1081 48.899 39.4387 49.5599 39.6363L49.8063 39.7102L50.0576 39.7634C50.2233 39.8014 50.3965 39.8283 50.5683 39.8576L51.5988 40.0344C54.345 40.5169 57.0876 41.0339 59.8018 41.7067C61.1678 42.0276 62.5126 42.438 63.828 42.9356L64.0751 43.0336L64.3181 43.1488C64.4837 43.2208 64.6445 43.3037 64.7997 43.3972C65.1317 43.5763 65.4235 43.8256 65.6559 44.129C65.8762 44.4367 66.0487 44.778 66.1671 45.1406C66.2792 45.4955 66.3586 45.8605 66.4043 46.2308C66.4891 46.9597 66.5021 47.6956 66.4431 48.4272C66.3909 49.1524 66.3006 49.874 66.1726 50.589C65.9183 52.0153 65.5692 53.4218 65.1276 54.7984L65.1343 54.6791L66.4028 60.5819L67.6605 66.4871L67.6634 66.5008C67.6708 66.5354 67.6666 66.5716 67.6514 66.6034C67.5772 66.7532 67.451 66.8685 67.2981 66.9263C67.1849 66.9788 67.0676 67.0214 66.9475 67.0537C66.7208 67.114 66.491 67.1608 66.2591 67.1937C65.802 67.2626 65.3465 67.2999 64.891 67.329C63.9799 67.3853 63.0721 67.3942 62.1606 67.3821L62.3273 67.2508L61.8065 69.2775L61.8058 69.2799C61.8028 69.2914 61.7986 69.3024 61.7931 69.3129C61.7053 69.4646 61.5879 69.5958 61.4484 69.6983C61.309 69.8007 61.1505 69.8722 60.9829 69.9081C60.6776 69.9837 60.3632 70.0129 60.0497 69.9948C59.443 69.9601 58.841 69.8651 58.2519 69.7111C57.0871 69.4075 55.942 69.028 54.8235 68.575C52.5855 67.6875 50.4097 66.6539 48.2695 65.5457C48.2555 65.5385 48.2441 65.5268 48.237 65.5124C48.2299 65.4981 48.2274 65.4817 48.2299 65.4658C48.2324 65.4498 48.2397 65.4351 48.2509 65.4238C48.262 65.4124 48.2763 65.4051 48.2918 65.4027L48.3029 65.4011C48.3601 65.3711 48.4101 65.3284 48.4496 65.2762C48.5036 65.2125 48.5543 65.146 48.6017 65.077C48.6982 64.9371 48.7885 64.7908 48.8765 64.6429C49.0513 64.346 49.2158 64.0413 49.3767 63.7347C49.6978 63.1209 50.0033 62.4974 50.3034 61.8713C50.9051 60.6196 51.4752 59.3514 52.0357 58.079C52.5968 56.8068 53.1496 55.5306 53.6939 54.2504C54.2345 52.9687 54.768 51.6839 55.2945 50.3959L55.4037 50.5561L54.2743 50.6382L53.1449 50.7576C52.7681 50.7953 52.3927 50.8431 52.0148 50.8726L50.8806 50.9599L50.3134 51.0035L49.7453 51.0315L48.6086 51.0853C48.2296 51.0998 47.8501 51.0994 47.4707 51.1055C47.0913 51.1122 46.712 51.1154 46.3325 51.1047C44.8132 51.0937 43.2954 51.0028 41.7851 50.8324C41.0297 50.7446 40.2774 50.6292 39.5283 50.4864C38.774 50.35 38.0289 50.164 37.2976 49.9295L37.3177 49.9354C36.5863 49.766 35.8927 49.455 35.2734 49.0187C34.6585 48.5722 34.1472 47.9903 33.7763 47.3149C33.4099 46.6484 33.1399 45.93 32.9748 45.1827C32.8075 44.4431 32.7094 43.6886 32.6819 42.9297C32.6273 41.4209 32.7228 39.9104 32.9667 38.4217C33.1996 36.9361 33.538 35.4702 33.9793 34.0359C33.9825 34.0254 33.9888 34.0163 33.9974 34.0098C34.006 34.0034 34.0164 33.9999 34.027 34L36.4797 34.031C36.485 34.0311 36.4901 34.0333 36.4938 34.0372C36.4975 34.0411 36.4996 34.0464 36.4996 34.0519C36.4996 34.0573 36.4975 34.0626 36.4938 34.0665C36.4901 34.0704 36.485 34.0727 36.4796 34.0728Z" fill="#020202"/>
<path d="M45.0118 30.9887C45.0947 30.33 45.1671 29.6794 45.2194 29.0248C45.2738 28.3709 45.3079 27.7161 45.3554 27.0601C45.408 26.4046 45.468 25.7448 45.4745 25.0835C45.4755 24.4221 45.4398 23.7612 45.3674 23.105L45.1565 21.1376L44.9359 19.1743L44.8349 18.1911L44.785 17.699L44.7608 17.4527L44.7319 17.219C44.6973 16.9153 44.5888 16.6286 44.4188 16.3914C44.328 16.2808 44.2148 16.1974 44.0891 16.1484C43.955 16.1014 43.8142 16.0848 43.6745 16.0997L43.667 16.0579C43.8147 15.9997 43.9729 15.9851 44.1269 16.0153C44.2809 16.0456 44.4257 16.1197 44.5478 16.2309C44.782 16.474 44.947 16.7916 45.0213 17.1427C45.1603 17.8124 45.2448 18.4535 45.3324 19.1155C45.4117 19.7738 45.4622 20.4362 45.5057 21.0988C45.5536 21.761 45.5707 22.4262 45.57 23.0911C45.5723 23.7558 45.5732 24.4187 45.5961 25.0815C45.6194 25.7442 45.6669 26.409 45.667 27.0762C45.6593 27.7439 45.6056 28.4099 45.5064 29.068C45.4149 29.7289 45.2611 30.3766 45.0478 31L45.0118 30.9887Z" fill="#020202"/>
<path d="M42.1929 28.3973L42.2258 29.7521H42.1179L42.0909 28.3973L42.1692 28.4793C40.9991 28.4692 39.8297 28.438 38.6599 28.4175C37.4902 28.397 36.3206 28.3698 35.1512 28.3361L35.3197 28.1992C35.1654 29.1264 35.0743 30.0632 35.0471 31.003C35.0333 31.4708 35.0436 31.939 35.0779 32.4058C35.1071 32.8675 35.1776 33.3257 35.2886 33.7745C35.3875 34.2113 35.5825 34.6198 35.8591 34.9696C35.9962 35.1308 36.1657 35.2607 36.3563 35.3504C36.5601 35.4345 36.7724 35.4959 36.9893 35.5334C37.9066 35.6729 38.8341 35.7324 39.7614 35.7112C41.6297 35.7008 43.5016 35.5791 45.3661 35.4023C47.2321 35.2357 49.0919 34.995 50.9463 34.733C50.9544 34.7319 50.9626 34.732 50.9706 34.7334L50.9724 34.7337C51.6889 34.8578 52.4109 34.9625 53.1333 35.0464C53.8531 35.1364 54.5773 35.1862 55.3026 35.1956C55.4826 35.1966 55.6623 35.1905 55.8398 35.1788C56.0111 35.1737 56.1812 35.1475 56.3462 35.1006C56.5009 35.0504 56.6436 34.9681 56.7652 34.8589C56.8867 34.7498 56.9845 34.6162 57.0522 34.4666C57.1944 34.1496 57.2727 33.8071 57.2823 33.459C57.3002 33.1042 57.2795 32.7485 57.2209 32.3982L57.2207 32.3971C57.2143 32.359 57.22 32.3199 57.2371 32.2854C57.2542 32.2509 57.2817 32.2228 57.3156 32.2052L59.5798 31.033L59.5965 31.0256L59.6057 31.0221C59.832 30.9483 60.0369 30.8194 60.2026 30.6468C60.2289 30.6201 60.2479 30.5869 60.2577 30.5504C60.2675 30.514 60.2678 30.4756 60.2584 30.4391C60.2461 30.3992 60.2258 30.3623 60.1988 30.3306C60.1719 30.2989 60.1388 30.2732 60.1017 30.2549C60.0203 30.2144 59.9275 30.204 59.8393 30.2257L59.4469 30.3311L58.6463 30.5395C58.111 30.6741 57.5747 30.8038 57.0279 30.911C56.7471 30.9706 56.4624 31.0098 56.1761 31.0283C56.1335 31.0297 56.0909 31.0285 56.0485 31.0249C55.9981 31.0209 55.9484 31.0107 55.9005 30.9947C55.8228 30.9707 55.7473 30.9404 55.6745 30.904C55.6214 30.8776 55.573 30.8424 55.5314 30.7997C55.4948 30.7621 55.4678 30.7161 55.4525 30.6656C55.4347 30.6048 55.4355 30.54 55.4549 30.4798C55.4784 30.4128 55.5175 30.3526 55.5691 30.3044C55.6005 30.2736 55.6338 30.2449 55.6688 30.2183C55.9014 30.0491 56.1446 29.8954 56.3968 29.758C56.5219 29.6896 56.6515 29.6256 56.7791 29.5671C56.8411 29.5383 56.909 29.5084 56.9493 29.4861C56.9584 29.4812 56.9655 29.476 56.9602 29.4799C56.9359 29.5019 56.9197 29.5315 56.9142 29.564C56.9049 29.6007 56.9102 29.6397 56.929 29.6725C56.936 29.6848 56.939 29.6865 56.9375 29.6848C56.9022 29.6585 56.8635 29.6372 56.8225 29.6214C56.767 29.5983 56.7102 29.5784 56.6525 29.5618C56.5296 29.527 56.4047 29.5003 56.2784 29.482C55.4983 29.3656 54.7018 29.4987 54 29.8627C53.5215 30.0904 53.0797 30.39 52.6895 30.7512L52.6869 30.7537C52.6513 30.7864 52.6053 30.8053 52.5572 30.807C51.3798 30.8477 50.2029 30.8769 49.0263 30.8946C47.8479 30.9038 46.673 30.9293 45.4853 30.8372C45.3324 30.8254 45.1804 30.8041 45.0301 30.7734C44.9869 30.7639 44.9444 30.751 44.903 30.735C44.8422 30.7069 44.8274 30.6947 44.7912 30.6755L44.6017 30.5694C44.3468 30.4335 44.0828 30.3159 43.8115 30.2176C43.2698 30.0187 42.6947 29.9292 42.119 29.9544C41.5385 29.9904 40.9668 30.1149 40.423 30.3237C39.8712 30.5208 39.332 30.7645 38.7705 30.9482C38.7652 30.9499 38.7595 30.9495 38.7546 30.947C38.7496 30.9445 38.7459 30.9401 38.7441 30.9348C38.7423 30.9295 38.7426 30.9237 38.745 30.9187C38.7474 30.9136 38.7517 30.9098 38.7569 30.9079C39.3075 30.7028 39.8345 30.4386 40.3834 30.217C40.9326 29.9807 41.5139 29.8299 42.1075 29.7695C42.7092 29.7238 43.3138 29.7999 43.8862 29.9932C44.1714 30.0876 44.4497 30.2023 44.7189 30.3365L44.9182 30.4409C44.9473 30.456 44.9956 30.4823 45.0023 30.4836C45.0301 30.4929 45.0584 30.5003 45.0871 30.5057C45.2259 30.5295 45.366 30.5448 45.5066 30.5516C46.6671 30.6026 47.8465 30.5653 49.0184 30.5336C50.1919 30.4964 51.3653 30.4467 52.5386 30.3844L52.4064 30.4402C52.8252 30.0459 53.3015 29.7193 53.8186 29.4721C54.5955 29.069 55.4768 28.92 56.3409 29.0456C56.4867 29.0663 56.6309 29.0966 56.7727 29.1364C56.8471 29.1575 56.9203 29.183 56.9918 29.2126C57.0793 29.2467 57.1606 29.2952 57.2324 29.3562C57.2615 29.3829 57.2868 29.4137 57.3074 29.4476C57.3442 29.5076 57.3576 29.5793 57.345 29.6488C57.3324 29.7182 57.2947 29.7804 57.2392 29.8232C57.2157 29.8425 57.1906 29.8595 57.164 29.8741C57.0837 29.9182 57.0248 29.9424 56.9623 29.9722C56.84 30.0289 56.7229 30.0873 56.6065 30.1514C56.3755 30.2787 56.1526 30.4205 55.939 30.5759C55.9191 30.591 55.9001 30.6074 55.8821 30.6248C55.8684 30.636 55.8649 30.6522 55.8788 30.6184C55.887 30.5913 55.8871 30.5622 55.879 30.535C55.8741 30.5178 55.8656 30.5019 55.8541 30.4883C55.8454 30.4806 55.86 30.4935 55.8793 30.5026C55.9301 30.527 55.9826 30.5474 56.0365 30.5636L56.0588 30.5708L56.0657 30.5716C56.0735 30.5737 56.0816 30.5748 56.0897 30.5749C56.1156 30.5773 56.1417 30.5782 56.1678 30.5775C56.4298 30.5617 56.6904 30.5277 56.9478 30.4757C57.4805 30.3767 58.0143 30.2533 58.5462 30.1251L59.3433 29.9259L59.7482 29.8215C59.9302 29.7794 60.121 29.8036 60.2871 29.8898C60.373 29.9343 60.449 29.996 60.5105 30.0713C60.5719 30.1466 60.6175 30.2338 60.6445 30.3276C60.6737 30.43 60.6745 30.5386 60.6467 30.6414C60.6201 30.7351 60.5748 30.8223 60.5136 30.8975C60.4085 31.0223 60.282 31.1268 60.1402 31.206C60.0093 31.2825 59.8717 31.3462 59.7289 31.3963L59.7548 31.3854L57.4748 32.5259L57.5695 32.333C57.6275 32.7127 57.6436 33.0977 57.6176 33.481C57.5993 33.8735 57.5032 34.2583 57.335 34.6125C57.2451 34.7974 57.1182 34.9613 56.9624 35.0939C56.8066 35.2265 56.6253 35.3248 56.43 35.3827C56.3341 35.4098 56.2361 35.429 56.137 35.44L55.8557 35.4586C55.6692 35.4661 55.4837 35.4671 55.2992 35.4615C54.5655 35.4323 53.8338 35.364 53.1072 35.2569C52.3819 35.156 51.6604 35.0349 50.9426 34.8935L50.9686 34.8941C49.1088 35.1444 47.2447 35.3445 45.3801 35.5482C43.5138 35.7327 41.6461 35.9167 39.7659 35.9798C38.8193 36.0271 37.8704 35.9914 36.9298 35.8731C36.6835 35.8367 36.4425 35.7698 36.2123 35.674C35.9755 35.5653 35.7641 35.4068 35.5924 35.2091C35.2753 34.8198 35.0498 34.3626 34.933 33.8721C34.7094 32.9297 34.6261 31.9588 34.6857 30.9915C34.7232 30.034 34.8261 29.0802 34.9935 28.137C35.0007 28.0975 35.0217 28.062 35.0526 28.0369C35.0835 28.0117 35.1223 27.9987 35.162 28.0001C36.3311 28.0413 37.4999 28.0906 38.6685 28.1478C39.8372 28.2038 41.0062 28.249 42.1745 28.3153L42.178 28.3155C42.1985 28.3167 42.2178 28.3259 42.2317 28.3411C42.2457 28.3564 42.2533 28.3765 42.2529 28.3973L42.2258 29.7521L42.2258 29.7545C42.2255 29.769 42.2196 29.7828 42.2092 29.7928C42.1989 29.8029 42.1851 29.8083 42.1708 29.8081C42.1565 29.8078 42.1429 29.8017 42.133 29.7913C42.123 29.7808 42.1176 29.7668 42.1179 29.7523L42.1179 29.7521L42.1509 28.3973C42.151 28.3917 42.1533 28.3864 42.1572 28.3825C42.1611 28.3786 42.1664 28.3765 42.1719 28.3765C42.1774 28.3765 42.1827 28.3786 42.1866 28.3825C42.1905 28.3864 42.1928 28.3917 42.1929 28.3973Z" fill="#020202"/>
<path d="M64.2489 68L62.4423 68.0354L62.1409 69.0583C61.9985 71.592 58.667 70.6649 58.667 70.6649L58.8284 72.3655C58.8827 72.9898 58.8965 73.6162 58.8697 74.2419C58.8429 75.0112 59.0069 76.2283 60.2318 76.6066C62.0692 77.1742 67.1484 76.9606 67.1484 76.9606L67.667 74.6451C67.0586 74.6168 66.4668 74.4604 65.9414 74.1891C65.4159 73.9177 64.9721 73.5394 64.6472 73.0858C64.296 72.5913 64.1221 72.0152 64.1483 71.4326L64.2489 68Z" stroke="#020202" stroke-width="0.96777" stroke-linecap="round" stroke-linejoin="round"/>
<path d="M34.167 46C34.3012 45.9955 34.4283 45.9409 34.5216 45.8476C34.6148 45.7543 34.667 45.6297 34.667 45.5C34.667 45.3703 34.6148 45.2457 34.5216 45.1524C34.4283 45.0591 34.3012 45.0045 34.167 45C34.0328 45.0045 33.9057 45.0591 33.8124 45.1524C33.7191 45.2457 33.667 45.3703 33.667 45.5C33.667 45.6297 33.7191 45.7543 33.8124 45.8476C33.9057 45.9409 34.0328 45.9955 34.167 46Z" fill="#020202"/>
<path d="M39.167 45C39.3012 44.9955 39.4283 44.9409 39.5216 44.8476C39.6149 44.7543 39.667 44.6297 39.667 44.5C39.667 44.3703 39.6149 44.2457 39.5216 44.1524C39.4283 44.0591 39.3012 44.0045 39.167 44C39.0328 44.0045 38.9057 44.0591 38.8124 44.1524C38.7191 44.2457 38.667 44.3703 38.667 44.5C38.667 44.6297 38.7191 44.7543 38.8124 44.8476C38.9057 44.9409 39.0328 44.9955 39.167 45Z" fill="#020202"/>
<path d="M44.167 19C44.3012 18.9955 44.4283 18.9409 44.5216 18.8476C44.6148 18.7543 44.667 18.6297 44.667 18.5C44.667 18.3703 44.6148 18.2457 44.5216 18.1524C44.4283 18.0591 44.3012 18.0045 44.167 18C44.0328 18.0045 43.9057 18.0591 43.8124 18.1524C43.7191 18.2457 43.667 18.3703 43.667 18.5C43.667 18.6297 43.7191 18.7543 43.8124 18.8476C43.9057 18.9409 44.0328 18.9955 44.167 19Z" fill="#020202"/>
<path d="M45.167 22C45.3012 21.9955 45.4283 21.9409 45.5216 21.8476C45.6149 21.7543 45.667 21.6297 45.667 21.5C45.667 21.3703 45.6149 21.2457 45.5216 21.1524C45.4283 21.0591 45.3012 21.0045 45.167 21C45.0328 21.0045 44.9057 21.0591 44.8124 21.1524C44.7191 21.2457 44.667 21.3703 44.667 21.5C44.667 21.6297 44.7191 21.7543 44.8124 21.8476C44.9057 21.9409 45.0328 21.9955 45.167 22Z" fill="#020202"/>
<path d="M45.167 24C45.3012 23.9955 45.4283 23.9409 45.5216 23.8476C45.6149 23.7543 45.667 23.6297 45.667 23.5C45.667 23.3703 45.6149 23.2457 45.5216 23.1524C45.4283 23.0591 45.3012 23.0045 45.167 23C45.0328 23.0045 44.9057 23.0591 44.8124 23.1524C44.7191 23.2457 44.667 23.3703 44.667 23.5C44.667 23.6297 44.7191 23.7543 44.8124 23.8476C44.9057 23.9409 45.0328 23.9955 45.167 24Z" fill="#020202"/>
<path d="M45.167 27C45.3012 26.9955 45.4283 26.9409 45.5216 26.8476C45.6149 26.7543 45.667 26.6297 45.667 26.5C45.667 26.3703 45.6149 26.2457 45.5216 26.1524C45.4283 26.0591 45.3012 26.0045 45.167 26C45.0328 26.0045 44.9057 26.0591 44.8124 26.1524C44.7191 26.2457 44.667 26.3703 44.667 26.5C44.667 26.6297 44.7191 26.7543 44.8124 26.8476C44.9057 26.9409 45.0328 26.9955 45.167 27Z" fill="#020202"/>
<path d="M45.167 29C45.3012 28.9955 45.4283 28.9409 45.5216 28.8476C45.6149 28.7543 45.667 28.6297 45.667 28.5C45.667 28.3703 45.6149 28.2457 45.5216 28.1524C45.4283 28.0591 45.3012 28.0045 45.167 28C45.0328 28.0045 44.9057 28.0591 44.8124 28.1524C44.7191 28.2457 44.667 28.3703 44.667 28.5C44.667 28.6297 44.7191 28.7543 44.8124 28.8476C44.9057 28.9409 45.0328 28.9955 45.167 29Z" fill="#020202"/>
<path d="M32.667 34H35.6163C36.1583 35.3153 36.667 35.2573 36.667 35.2573C35.1797 37.4819 32.667 34 32.667 34Z" fill="#020202"/>
<path d="M44.667 16C44.667 16 47.2213 24.6626 45.1152 30.8486L45.7276 31C45.7276 31 46.616 27.9176 47.0456 27.3734C49.8305 23.8457 48.1832 22.6345 48.1832 22.6345C46.2183 21.4497 44.667 16 44.667 16Z" fill="#F0B73F"/>
<path d="M35.667 28.6575C36.987 28.6447 38.2962 28.5711 39.6089 28.5194L43.5435 28.3562L43.4271 28.3813C43.4125 28.3874 43.4522 28.3646 43.4692 28.3519C43.493 28.3333 43.5158 28.3136 43.5373 28.2927C43.5847 28.247 43.6281 28.198 43.6672 28.1459C43.7505 28.0302 43.8175 27.905 43.8667 27.7735C43.9688 27.487 44.0272 27.1887 44.0401 26.8871C44.0446 26.7314 44.0581 26.576 44.0482 26.4174L44.0416 26.1803L44.019 25.9419C44.0078 25.7828 43.9849 25.6237 43.958 25.4645L43.8836 24.9788C43.7732 24.3216 43.692 23.6593 43.6475 22.9943C43.5912 22.3292 43.6136 21.6605 43.7142 21C43.7534 21.6577 43.8409 22.3121 43.9761 22.9587C44.0978 23.6057 44.2434 24.2483 44.397 24.8889C44.5763 25.551 44.667 26.2311 44.667 26.9139C44.6567 27.2732 44.5916 27.6294 44.4737 27.9718C44.4085 28.1533 44.3185 28.3263 44.2057 28.4864C44.1453 28.5713 44.0759 28.6502 43.9985 28.7222C43.9576 28.7601 43.9144 28.7959 43.8691 28.8291C43.8126 28.8698 43.7517 28.9048 43.6873 28.9336C43.6535 28.9489 43.6166 28.9573 43.579 28.9585L43.5709 28.9587C42.91 28.9762 42.2523 28.9993 41.5924 28.9989C40.9331 29.0015 40.2735 29.001 39.6137 28.9808C38.9541 28.9679 38.2942 28.9337 37.635 28.889C36.9747 28.8477 36.3176 28.7704 35.667 28.6575Z" fill="#020202"/>
</svg>
