<svg width="160" height="25" viewBox="0 0 160 25" fill="none" xmlns="http://www.w3.org/2000/svg">
<g clip-path="url(#clip0_18_10583)">
<path d="M42.125 0.891602H58.625L44.375 24.8916H27.875L42.125 0.891602Z" fill="#043A53"/>
<path d="M27.125 0.891602H39.125L24.875 24.8916H12.875L27.125 0.891602Z" fill="#92A7B0"/>
<path d="M15.125 0.891602H24.125L9.875 24.8916H0.875L15.125 0.891602Z" fill="#C9D3D8"/>
</g>
<path d="M63.5 9.93422V6.8916H77.8352V9.93422H72.4915V24.3461H68.8437V9.93422H63.5Z" fill="#043A53"/>
<path d="M78.7685 24.3461V11.2552H82.2883V13.5393H82.4247C82.6633 12.7268 83.0639 12.1132 83.6264 11.6984C84.1889 11.278 84.8366 11.0677 85.5696 11.0677C85.7514 11.0677 85.9474 11.0791 86.1577 11.1018C86.3679 11.1246 86.5526 11.1558 86.7116 11.1956V14.4172C86.5412 14.366 86.3054 14.3206 86.0043 14.2808C85.7031 14.241 85.4276 14.2211 85.1776 14.2211C84.6435 14.2211 84.1662 14.3376 83.7457 14.5706C83.331 14.7979 83.0014 15.116 82.7571 15.5251C82.5185 15.9342 82.3991 16.4058 82.3991 16.9399V24.3461H78.7685Z" fill="#043A53"/>
<path d="M96.9837 18.7723V11.2552H100.614V24.3461H97.1285V21.9683H96.9922C96.6967 22.7354 96.2052 23.3518 95.5177 23.8177C94.8359 24.2836 94.0035 24.5166 93.0206 24.5166C92.1456 24.5166 91.3757 24.3177 90.7109 23.92C90.0462 23.5223 89.5263 22.9569 89.1513 22.224C88.782 21.491 88.5945 20.6132 88.5888 19.5905V11.2552H92.2195V18.9427C92.2251 19.7155 92.4325 20.3263 92.8416 20.7751C93.2507 21.224 93.799 21.4484 94.4865 21.4484C94.924 21.4484 95.3331 21.349 95.7138 21.1501C96.0945 20.9456 96.4013 20.6444 96.6342 20.2467C96.8729 19.849 96.9893 19.3575 96.9837 18.7723Z" fill="#043A53"/>
<path d="M114.411 14.9882L111.087 15.1927C111.03 14.9086 110.908 14.653 110.72 14.4257C110.533 14.1927 110.286 14.0081 109.979 13.8717C109.678 13.7297 109.317 13.6586 108.896 13.6586C108.334 13.6586 107.859 13.778 107.473 14.0166C107.087 14.2496 106.893 14.5621 106.893 14.9541C106.893 15.2666 107.018 15.5308 107.268 15.7467C107.518 15.9626 107.947 16.1359 108.555 16.2666L110.925 16.7439C112.197 17.0052 113.146 17.4257 113.771 18.0052C114.396 18.5848 114.709 19.3461 114.709 20.2893C114.709 21.1473 114.456 21.9001 113.95 22.5479C113.45 23.1956 112.763 23.7013 111.888 24.0649C111.018 24.4229 110.016 24.6018 108.879 24.6018C107.146 24.6018 105.766 24.241 104.737 23.5194C103.714 22.7922 103.115 21.8035 102.939 20.5535L106.51 20.366C106.618 20.8944 106.879 21.2979 107.294 21.5763C107.709 21.849 108.24 21.9854 108.888 21.9854C109.524 21.9854 110.036 21.8632 110.422 21.6189C110.814 21.3689 111.013 21.0479 111.018 20.6558C111.013 20.3263 110.874 20.0564 110.601 19.8461C110.328 19.6302 109.908 19.4655 109.339 19.3518L107.072 18.9001C105.794 18.6444 104.842 18.2013 104.217 17.5706C103.598 16.9399 103.288 16.1359 103.288 15.1586C103.288 14.3177 103.516 13.5933 103.97 12.9854C104.43 12.3774 105.075 11.9086 105.905 11.5791C106.74 11.2496 107.717 11.0848 108.837 11.0848C110.49 11.0848 111.791 11.4342 112.74 12.1331C113.695 12.8319 114.251 13.7836 114.411 14.9882Z" fill="#043A53"/>
<path d="M123.958 11.2552V13.9825H116.075V11.2552H123.958ZM117.864 8.11887H121.495V20.3234C121.495 20.6586 121.546 20.92 121.648 21.1075C121.751 21.2893 121.893 21.4172 122.075 21.491C122.262 21.5649 122.478 21.6018 122.722 21.6018C122.893 21.6018 123.063 21.5876 123.234 21.5592C123.404 21.5251 123.535 21.4996 123.626 21.4825L124.197 24.1842C124.015 24.241 123.759 24.3064 123.43 24.3802C123.1 24.4598 122.7 24.5081 122.228 24.5251C121.353 24.5592 120.586 24.4427 119.927 24.1757C119.273 23.9086 118.765 23.4939 118.401 22.9314C118.038 22.3689 117.859 21.6586 117.864 20.8007V8.11887Z" fill="#043A53"/>
<path d="M132.097 24.6018C130.756 24.6018 129.603 24.3177 128.637 23.7496C127.677 23.1757 126.938 22.3802 126.421 21.3632C125.91 20.3461 125.654 19.1757 125.654 17.8518C125.654 16.5109 125.913 15.3348 126.43 14.3234C126.952 13.3064 127.694 12.5138 128.654 11.9456C129.614 11.3717 130.756 11.0848 132.08 11.0848C133.222 11.0848 134.222 11.2922 135.08 11.7069C135.938 12.1217 136.617 12.7041 137.117 13.4541C137.617 14.2041 137.893 15.0848 137.944 16.0961H134.518C134.421 15.4427 134.165 14.9172 133.751 14.5194C133.342 14.116 132.805 13.9143 132.14 13.9143C131.577 13.9143 131.086 14.0677 130.665 14.3746C130.251 14.6757 129.927 15.116 129.694 15.6956C129.461 16.2751 129.344 16.9768 129.344 17.8007C129.344 18.6359 129.458 19.3461 129.685 19.9314C129.918 20.5166 130.245 20.9626 130.665 21.2694C131.086 21.5763 131.577 21.7297 132.14 21.7297C132.555 21.7297 132.927 21.6444 133.256 21.474C133.592 21.3035 133.867 21.0564 134.083 20.7325C134.305 20.403 134.45 20.0081 134.518 19.5479H137.944C137.887 20.5479 137.614 21.4285 137.126 22.1899C136.643 22.9456 135.975 23.5365 135.123 23.9626C134.271 24.3888 133.262 24.6018 132.097 24.6018Z" fill="#043A53"/>
<path d="M146.183 24.6018C144.859 24.6018 143.714 24.3206 142.749 23.7581C141.788 23.1899 141.047 22.4001 140.524 21.3888C140.001 20.3717 139.74 19.1927 139.74 17.8518C139.74 16.4996 140.001 15.3177 140.524 14.3064C141.047 13.2893 141.788 12.4996 142.749 11.9371C143.714 11.3689 144.859 11.0848 146.183 11.0848C147.507 11.0848 148.649 11.3689 149.609 11.9371C150.575 12.4996 151.32 13.2893 151.842 14.3064C152.365 15.3177 152.626 16.4996 152.626 17.8518C152.626 19.1927 152.365 20.3717 151.842 21.3888C151.32 22.4001 150.575 23.1899 149.609 23.7581C148.649 24.3206 147.507 24.6018 146.183 24.6018ZM146.2 21.7893C146.803 21.7893 147.305 21.6189 147.709 21.278C148.112 20.9314 148.416 20.4598 148.621 19.8632C148.831 19.2666 148.936 18.5876 148.936 17.8263C148.936 17.0649 148.831 16.3859 148.621 15.7893C148.416 15.1927 148.112 14.7211 147.709 14.3746C147.305 14.028 146.803 13.8547 146.2 13.8547C145.592 13.8547 145.081 14.028 144.666 14.3746C144.257 14.7211 143.947 15.1927 143.737 15.7893C143.533 16.3859 143.43 17.0649 143.43 17.8263C143.43 18.5876 143.533 19.2666 143.737 19.8632C143.947 20.4598 144.257 20.9314 144.666 21.278C145.081 21.6189 145.592 21.7893 146.2 21.7893Z" fill="#043A53"/>
<path d="M157.109 24.5677C156.547 24.5677 156.064 24.3689 155.66 23.9711C155.263 23.5677 155.064 23.0848 155.064 22.5223C155.064 21.9655 155.263 21.4882 155.66 21.0905C156.064 20.6927 156.547 20.4939 157.109 20.4939C157.655 20.4939 158.132 20.6927 158.541 21.0905C158.95 21.4882 159.155 21.9655 159.155 22.5223C159.155 22.8973 159.058 23.241 158.865 23.5535C158.678 23.8604 158.43 24.1075 158.124 24.295C157.817 24.4768 157.479 24.5677 157.109 24.5677Z" fill="#043A53"/>
<defs>
<clipPath id="clip0_18_10583">
<rect width="58.5" height="24" fill="white" transform="translate(0.5 0.891602)"/>
</clipPath>
</defs>
</svg>
