<svg width="130" height="32" viewBox="0 0 130 32" fill="none" xmlns="http://www.w3.org/2000/svg">
<path fill-rule="evenodd" clip-rule="evenodd" d="M73.6224 21.0073C73.6224 21.2652 73.5983 21.5328 73.531 21.7644C73.2465 22.7328 72.2688 23.5531 71.0483 23.5531C70.0318 23.5531 69.22 22.9576 69.22 21.7012C69.22 19.7795 71.2794 19.2487 73.6224 19.2614V21.0073ZM77.2964 17.6592C77.2964 14.4886 75.9786 11.7 71.5287 11.7C69.2449 11.7 67.4298 12.3593 66.4404 12.9465L67.1644 15.4946C68.069 14.9074 69.5111 14.4217 70.875 14.4217C73.1332 14.4164 73.5025 15.7367 73.5025 16.5826V16.7826C68.5802 16.7743 65.4707 18.5261 65.4707 22.096C65.4707 24.2764 67.0554 26.32 69.808 26.32C71.5031 26.32 72.9189 25.6245 73.7672 24.5117H73.8528C73.8528 24.5117 74.4137 26.9275 77.5107 26.0049C77.3498 24.9982 77.2964 23.9238 77.2964 22.6336V17.6592Z" fill="#787878"/>
<path fill-rule="evenodd" clip-rule="evenodd" d="M0.110352 8.26001C0.110352 8.26001 3.30172 21.2652 3.81124 23.3763C4.40567 25.8404 5.47696 26.7462 8.566 26.1363L10.5583 18.0729C11.0642 16.0686 11.4024 14.6417 11.7269 12.6042H11.7842C12.0114 14.6627 12.3373 16.0751 12.7532 18.0794C12.7532 18.0794 13.5639 21.7394 13.9798 23.6621C14.3971 25.5834 15.5555 26.796 18.5807 26.1363L23.3304 8.26001H19.4959L17.8745 15.9885C17.4375 18.2375 17.0441 19.9964 16.7379 22.0548H16.6841C16.4062 20.0166 16.0549 18.3284 15.6107 16.1372L13.9232 8.26001H9.92688L8.12253 15.938C7.61084 18.2714 7.13253 20.1559 6.82769 22.1429H6.77325C6.46116 20.2714 6.04527 17.9033 5.59745 15.645C5.59745 15.645 4.52325 10.1539 4.14729 8.26001" fill="#787878"/>
<path fill-rule="evenodd" clip-rule="evenodd" d="M30.6205 21.0073C30.6205 21.2652 30.5993 21.5328 30.5291 21.7644C30.2446 22.7328 29.2684 23.5531 28.0479 23.5531C27.0293 23.5531 26.2205 22.9576 26.2205 21.7012C26.2205 19.7795 28.2783 19.2487 30.6205 19.2614V21.0073ZM34.2943 17.6592C34.2943 14.4886 32.9773 11.7 28.5276 11.7C26.2417 11.7 24.429 12.3593 23.4381 12.9465L24.1635 15.4946C25.0681 14.9074 26.5087 14.4217 27.8739 14.4217C30.1327 14.4164 30.502 15.7367 30.502 16.5826V16.7826C25.5792 16.7743 22.4707 18.5261 22.4707 22.096C22.4707 24.2764 24.0539 26.32 26.8063 26.32C28.4998 26.32 29.917 25.6245 30.766 24.5117H30.8486C30.8486 24.5117 31.4117 26.9275 34.5107 26.0049C34.3469 24.9982 34.2943 23.9238 34.2943 22.6336V17.6592Z" fill="#787878"/>
<path fill-rule="evenodd" clip-rule="evenodd" d="M40.5308 22.4849V8.26001H37.0908V26.32H40.5308" fill="#787878"/>
<path fill-rule="evenodd" clip-rule="evenodd" d="M89.5508 8.26001V21.3631C89.5508 23.1665 89.8993 24.4335 90.648 25.2072C91.2993 25.8819 92.3744 26.32 93.6624 26.32C94.7603 26.32 95.8391 26.1178 96.3453 25.9335L96.2974 23.1149C95.9201 23.2052 95.4839 23.2776 94.8893 23.2776C93.6278 23.2776 93.2048 22.4918 93.2048 20.8691V15.8584H96.4308V12.4597H93.2048V8.26001" fill="#787878"/>
<path fill-rule="evenodd" clip-rule="evenodd" d="M80.0908 12.8638V26.3201H83.7744V19.4292C83.7744 19.0575 83.7978 18.7327 83.8546 18.4362C84.1288 16.9927 85.212 16.0713 86.7697 16.0713C87.1965 16.0713 87.5027 16.1176 87.8308 16.166V12.6432C87.5552 12.5854 87.3663 12.5601 87.0204 12.5601C85.6438 12.5601 84.0798 13.4626 83.4235 15.4016H83.3226V12.8638" fill="#787878"/>
<path fill-rule="evenodd" clip-rule="evenodd" d="M43.1104 12.8638V26.3201H46.8681V18.4283C46.8681 18.0587 46.9112 17.666 47.045 17.3275C47.3571 16.5327 48.1167 15.6019 49.3281 15.6019C50.8443 15.6019 51.5541 16.8488 51.5541 18.651V26.3201H55.3074V18.3328C55.3074 17.9799 55.3572 17.5553 55.4649 17.2415C55.7726 16.3374 56.5909 15.6019 57.7191 15.6019C59.2568 15.6019 59.9941 16.8285 59.9941 18.9468V26.3201H63.7504V18.395C63.7504 14.2141 61.569 12.5601 59.1082 12.5601C58.0171 12.5601 57.1565 12.8255 56.3791 13.2905C55.7243 13.6818 55.1394 14.2358 54.6273 14.9662H54.5723C53.9777 13.5162 52.5812 12.5601 50.7603 12.5601C48.4222 12.5601 47.372 13.7129 46.7328 14.6921H46.6771V12.8638" fill="#787878"/>
<path fill-rule="evenodd" clip-rule="evenodd" d="M116.637 10.84C117.372 10.84 117.981 10.4665 118.063 9.98457L118.79 1.96301C118.79 1.17077 117.838 0.52002 116.639 0.52002C115.443 0.52002 114.49 1.17077 114.49 1.96301L115.217 9.98457C115.297 10.4665 115.905 10.84 116.642 10.84" fill="#787878"/>
<path fill-rule="evenodd" clip-rule="evenodd" d="M111.66 13.4031C112.014 12.7362 111.987 11.9845 111.613 11.6522L105.097 6.68863C104.42 6.26459 103.404 6.77652 102.827 7.86283C102.25 8.94682 102.35 10.1588 103.027 10.5844L110.24 14.2319C110.694 14.4146 111.308 14.0646 111.662 13.4" fill="#787878"/>
<path fill-rule="evenodd" clip-rule="evenodd" d="M120.758 13.4C121.114 14.0646 121.725 14.4146 122.177 14.2319L129.393 10.5843C130.073 10.1587 130.17 8.94675 129.592 7.86274C129.016 6.77719 128 6.26449 127.322 6.68853L120.806 11.6521C120.433 11.9844 120.408 12.7362 120.76 13.4031" fill="#787878"/>
<path fill-rule="evenodd" clip-rule="evenodd" d="M116.637 21.1599C117.372 21.1599 117.981 21.5334 118.063 22.0152L118.79 30.0357C118.79 30.8278 117.838 31.4799 116.639 31.4799C115.443 31.4799 114.49 30.8278 114.49 30.0357L115.217 22.0152C115.297 21.5334 115.905 21.1599 116.642 21.1599" fill="#787878"/>
<path fill-rule="evenodd" clip-rule="evenodd" d="M120.758 17.7408C121.114 17.0731 121.725 16.7262 122.177 16.9082L129.393 20.5547C130.073 20.981 130.17 22.193 129.592 23.2784C129.016 24.3616 128 24.8758 127.322 24.4518L120.806 19.4885C120.433 19.1547 120.408 18.4038 120.76 17.7377" fill="#787878"/>
<path fill-rule="evenodd" clip-rule="evenodd" d="M111.66 17.7387C112.014 18.4049 111.987 19.1551 111.613 19.4898L105.097 24.4515C104.42 24.8755 103.404 24.3636 102.827 23.2802C102.25 22.1946 102.35 20.981 103.027 20.5546L110.24 16.9091C110.694 16.7248 111.308 17.0733 111.662 17.741" fill="#787878"/>
</svg>
